<?xml version="1.0" encoding="utf-8"?>
<!-- Generator: Adobe Illustrator 28.0.0, SVG Export Plug-In . SVG Version: 6.00 Build 0)  -->
<svg version="1.1" id="Capa_1" xmlns="http://www.w3.org/2000/svg" xmlns:xlink="http://www.w3.org/1999/xlink" x="0px" y="0px"
	 viewBox="0 0 1920 1080" style="enable-background:new 0 0 1920 1080;" xml:space="preserve">
<style type="text/css">
	.st0{fill:#2E42B3;}
	.st1{fill:#3A99F7;}
	.st2{fill:#339EFF;}
	.st3{fill:#389BFF;}
	.st4{fill:#3040AF;}
	.st5{fill:#359DFF;}
	.st6{fill:#359CFF;}
	.st7{clip-path:url(#SVGID_00000152264671849406056760000013943278482170850196_);fill:#3A99D1;}
	.st8{clip-path:url(#SVGID_00000152264671849406056760000013943278482170850196_);}
	.st9{fill:#FFFFFF;}
	.st10{fill:none;stroke:#000000;stroke-width:0.25;stroke-miterlimit:10;}
	.st11{fill:none;stroke:#000000;stroke-width:0.2592;stroke-miterlimit:10;}
</style>
<g>
	<path class="st0" d="M22.8,247.46c6.11,0,12.22,0,18.33,0v149.87c7.6,30.49,35.24,52.01,66.58,51.89
		c31.15-0.12,58.49-21.59,66.04-51.89c0-49.96,0-99.92,0-149.87h16.17c0,49.88,0,99.76,0,149.64c-9.97,38.8-44.92,65.83-83.83,65.57
		c-36.18-0.24-68.86-24.04-80.78-59.18C24.48,351.48,23.64,299.47,22.8,247.46z"/>
</g>
<g>
	<path class="st0" d="M222.27,458.79h-14.83V249.08h31l121.03,206.21h3.77V249.08h14.83v209.72H346L223.49,250.7
		c-0.67,0-1.35,0-2.02,0C221.74,320.06,222.01,389.43,222.27,458.79z"/>
</g>
<g>
	<path class="st0" d="M592.62,390.59c-2.23,9.7-6.05,20.25-12.6,30.58c0,0-3.65,5.76-7.93,10.73c-11.71,13.64-43.54,32-82.15,30.66
		c-9.02-0.31-56.73-1.96-83.87-39.47c-16.88-23.34-17.06-48.49-17.21-65.66c-0.16-18.38-0.47-50.76,22.81-77.49
		c27.25-31.28,67.31-32.22,78.27-32.48c11.28-0.29,42.95-1.1,70.09,21.03c19.85,16.17,28.64,37.59,32.56,55.78h-12.76
		c-3.37-15.23-10.67-32.58-26.55-46.1c-23.45-19.93-51.61-19.54-62-19.4c-10.9,0.14-40.62,0.55-63.08,22.44
		c-22.57,22.02-23.41,51.76-23.98,72.3c-0.59,20.85-1.35,48.12,18.11,70.67c23.49,27.25,59.14,27.51,68.95,27.6
		c9.42,0.06,43.15,0.31,68.19-25.39c10.87-11.18,16.78-23.86,19.95-35.81H592.62z"/>
</g>
<path class="st0" d="M687.13,250.43l75.96,210.37h-15.67c-25.18-70.12-50.35-140.25-75.53-210.37
	C676.97,250.43,682.05,250.43,687.13,250.43z"/>
<path class="st1" d="M670.08,250.43c-24.37,70.17-48.74,140.35-73.12,210.52h-15.9l73.59-210.52
	C659.79,250.43,664.93,250.43,670.08,250.43z"/>
<path class="st2" d="M48.52,511.8h42.05v97.85c0.76,1.58,13.16,26.22,40.64,29.31c19.99,2.25,39.78-7.83,50.34-25.68
	c0-33.29,0-66.58,0-99.87h42.05v162.95h-41.65v-16.98c-6.49,5.91-21.28,17.63-43.26,21.03c-4.63,0.72-39.84,5.54-66.91-19.9
	c-16.27-15.29-21.24-33.66-22.85-41.35C48.79,583.37,48.66,547.58,48.52,511.8z"/>
<path class="st2" d="M424,675.1h-42.05v-97.85c-0.76-1.58-13.16-26.22-40.64-29.31c-19.99-2.25-39.78,7.83-50.34,25.68
	c0,33.29,0,66.58,0,99.87h-42.05V510.54h41.65v16.98c6.49-5.91,21.28-17.63,43.26-21.03c4.63-0.72,39.84-5.54,66.91,19.9
	c16.27,15.29,21.24,33.66,22.85,41.35C423.73,603.54,423.86,639.32,424,675.1z"/>
<path class="st2" d="M123.3,789.13h-16.61v-38.66c-0.3-0.62-5.2-10.36-16.06-11.58c-7.9-0.89-15.72,3.09-19.89,10.14
	c0,13.15,0,26.31,0,39.46H54.13v-64.38h16.46v6.71c2.57-2.34,8.41-6.96,17.09-8.31c1.83-0.28,15.74-2.19,26.44,7.86
	c6.43,6.04,8.39,13.3,9.03,16.34C123.2,760.86,123.25,774.99,123.3,789.13z"/>
<rect x="449.31" y="510.04" class="st3" width="39.89" height="165.27"/>
<rect x="449.31" y="470.36" class="st0" width="39.89" height="25.34"/>
<rect x="298.62" y="725.66" class="st3" width="15.76" height="63.8"/>
<rect x="298.12" y="711.24" class="st3" width="15.76" height="10.01"/>
<path class="st4" d="M652.13,675.07c16.38-54.93,32.75-109.85,49.13-164.78c-13.81,0-27.63,0-41.44,0
	c-17.52,54.93-35.05,109.85-52.57,164.78C622.2,675.07,637.17,675.07,652.13,675.07z"/>
<path class="st5" d="M605.42,675.07c-16.01-54.93-32.03-109.85-48.04-164.78c-14.29,0-28.57,0-42.86,0
	c16.76,54.93,33.51,109.85,50.27,164.78C578.34,675.07,591.88,675.07,605.42,675.07z"/>
<path class="st5" d="M909.87,612.94 M911.75,587.12c-0.37-8.22-1.21-23.04-10.1-39.45c-3.21-5.93-11.37-19.22-27-29.6
	c-20.42-13.53-41.07-13.82-53.86-13.84c-17.31,0-50.39-0.02-73.61,25.1c-20.63,22.3-20.61,50.55-20.61,59.22
	c0,7.81,0.02,39.74,24.67,64.1c24.92,24.65,57.28,24.06,69.54,23.83c6.81-0.12,42.76-0.8,68.36-26.66
	c10.51-10.61,15.43-21.61,16.56-24.18c1.68-3.9,2.92-7.69,3.84-11.3h-45.5c-2.74,3.45-7.36,8.52-14.29,12.94
	c-2.17,1.39-26.37,16.31-52.6,5.89c-3.95-1.55-23.04-9.14-27.98-26.96c-1.27-4.52-1.29-8.52-1.08-11.26h141.78h1.88V587.12z
	 M775.1,564.88c3.19-3.78,15.13-16.93,35.04-19.81c29.52-4.25,49.86,17.97,51.49,19.81H775.1z"/>
<path class="st5" d="M798.89,764.33 M799.63,754.13c-0.15-3.25-0.48-9.1-3.99-15.59c-1.27-2.34-4.49-7.59-10.67-11.7
	c-8.07-5.35-16.23-5.46-21.28-5.47c-6.84,0-19.91-0.01-29.08,9.92c-8.15,8.81-8.14,19.97-8.14,23.4c0,3.09,0.01,15.7,9.75,25.33
	c9.85,9.74,22.63,9.51,27.48,9.42c2.69-0.05,16.9-0.31,27.01-10.53c4.15-4.19,6.1-8.54,6.54-9.55c0.66-1.54,1.15-3.04,1.52-4.47
	h-17.98c-1.08,1.36-2.91,3.37-5.65,5.11c-0.86,0.55-10.42,6.45-20.78,2.33c-1.56-0.61-9.1-3.61-11.06-10.65
	c-0.5-1.78-0.51-3.37-0.43-4.45h56.02h0.74V754.13z M745.64,745.34c1.26-1.49,5.98-6.69,13.84-7.83c11.66-1.68,19.7,7.1,20.35,7.83
	H745.64z"/>
<path class="st5" d="M979.32,510.4c-13.61,0-27.23,0-40.84,0c-0.47,54.9-0.94,109.8-1.42,164.7c14.08,0,28.17,0,42.25,0
	c0-31.2,0-62.4,0-93.6c4.21-6.98,11.59-16.71,23.7-24.1c14.51-8.86,28.84-10.09,37.66-10.85c7.29-0.63,13.45-0.38,17.89,0
	c0-12.05,0-24.1,0-36.15c-3.43-0.15-8.26-0.25-14.02,0c-12.88,0.57-27.07,1.2-41.38,8.03c-5.89,2.82-14.98,8.21-23.86,18.61
	C979.32,528.16,979.32,519.28,979.32,510.4z"/>
<path class="st5" d="M1417.33,725.54c-5.56-0.02-11.13-0.04-16.69-0.06c0,21.33,0,42.66,0,63.98c5.56,0,11.13,0,16.69,0
	c0-12.11,0-24.22,0-36.33c1.66-2.71,4.58-6.49,9.36-9.35c5.73-3.44,11.4-3.92,14.88-4.21c2.88-0.24,5.31-0.15,7.07,0
	c0-4.68,0-9.35,0-14.03c-1.36-0.06-3.26-0.1-5.54,0c-5.09,0.22-10.7,0.46-16.35,3.12c-2.33,1.09-5.92,3.18-9.43,7.22
	C1417.33,732.43,1417.33,728.99,1417.33,725.54z"/>
<path class="st6" d="M1441.92,462.27v62.1c-5.03-4.05-10.3-7.48-15.6-10.16c-15.33-7.77-29.48-8.67-37.51-9.1
	c-13.26-0.71-40.55-1.66-62.67,16.82c-25.95,21.68-26.79,55.26-27.09,67.28c-0.32,12.58-1.08,42.94,20.7,64.58
	c18.43,18.32,42.19,19.68,68.25,21.14c15.31,0.86,25.45-1.02,34.51-5.4c6.7-3.23,12.29-7.56,18.34-13.88
	c0.35-0.37,0.72-0.76,1.08-1.12c0.09,6.59,0.17,13.19,0.26,19.78c13.57,0,27.14,0,40.7,0c0-70.69,0-141.37,0-212.06H1441.92z
	 M1388.61,635.3c-9.38-0.18-22.5-0.43-33.86-10.2c-13.36-11.49-14.68-27.88-14.86-32.25c-0.66-15.61,6.63-32.01,20.32-40.97
	c11.63-7.61,23.65-7.09,31.43-6.76c8.07,0.35,25.09,1.08,37.13,13.35c15.91,16.22,17.64,47.05,2.1,63.89
	C1418.4,635.87,1399.34,635.51,1388.61,635.3z"/>
<path class="st6" d="M700.27,705.62v24.54c-1.99-1.6-4.07-2.96-6.16-4.01c-6.06-3.07-11.65-3.42-14.82-3.59
	c-5.24-0.28-16.02-0.66-24.76,6.65c-10.25,8.56-10.59,21.83-10.71,26.58c-0.13,4.97-0.43,16.96,8.18,25.52
	c7.28,7.24,16.67,7.77,26.97,8.35c6.05,0.34,10.06-0.4,13.63-2.13c2.65-1.28,4.85-2.99,7.24-5.48c0.14-0.15,0.28-0.3,0.43-0.44
	c0.03,2.61,0.07,5.21,0.1,7.82c5.36,0,10.72,0,16.08,0c0-27.93,0-55.86,0-83.79H700.27z M679.21,773.99
	c-3.7-0.07-8.89-0.17-13.38-4.03c-5.28-4.54-5.8-11.02-5.87-12.74c-0.26-6.17,2.62-12.65,8.03-16.19c4.59-3.01,9.34-2.8,12.42-2.67
	c3.19,0.14,9.91,0.43,14.67,5.28c6.29,6.41,6.97,18.59,0.83,25.24C690.98,774.21,683.45,774.07,679.21,773.99z"/>
<path class="st6" d="M1691.14,511.58c-12.75,0-25.49,0-38.24,0c0,5.36,0,10.71,0,16.07c-0.91-1.1-1.82-2.19-2.73-3.29
	c-0.49-0.39-0.98-0.78-1.47-1.16c-4.58-3.55-9.35-6.58-14.13-9c-15.33-7.77-29.48-8.67-37.51-9.1
	c-13.26-0.71-40.55-1.66-62.67,16.82c-25.95,21.68-26.79,55.26-27.09,67.28c-0.32,12.58-1.08,42.94,20.7,64.58
	c18.43,18.32,42.19,19.68,68.25,21.14c15.31,0.86,25.45-1.02,34.51-5.4c6.7-3.23,12.29-7.56,18.34-13.88
	c0.35-0.37,0.72-0.76,1.08-1.12c0,6.59,0,13.19,0,19.78c13.65,0,27.31,0,40.96,0C1691.14,620.08,1691.14,565.83,1691.14,511.58z
	 M1650.18,462.27 M1596.87,635.3c-9.38-0.18-22.5-0.43-33.86-10.2c-13.36-11.49-14.68-27.88-14.86-32.25
	c-0.66-15.61,6.63-32.01,20.32-40.97c11.63-7.61,23.65-7.09,31.43-6.76c8.07,0.35,25.09,1.08,37.13,13.35
	c15.91,16.22,17.64,47.05,2.1,63.89C1626.66,635.87,1607.6,635.51,1596.87,635.3z"/>
<path class="st6" d="M1040.21,725.3c-5.04,0-10.07,0-15.11,0c0,2.11,0,4.23,0,6.34c-0.36-0.43-0.72-0.87-1.08-1.3
	c-0.19-0.15-0.39-0.31-0.58-0.46c-1.81-1.4-3.69-2.6-5.58-3.55c-6.06-3.06-11.65-3.42-14.82-3.59c-5.24-0.28-16.02-0.66-24.76,6.63
	c-10.25,8.55-10.59,21.79-10.71,26.54c-0.13,4.96-0.43,16.93,8.18,25.47c7.28,7.22,16.67,7.76,26.97,8.34
	c6.05,0.34,10.06-0.4,13.63-2.13c2.65-1.27,4.85-2.98,7.24-5.47c0.14-0.15,0.28-0.3,0.43-0.44c0,2.6,0,5.2,0,7.8
	c5.4,0,10.79,0,16.19,0C1040.21,768.09,1040.21,746.7,1040.21,725.3z M1024.02,705.85 M1002.96,774.1
	c-3.7-0.07-8.89-0.17-13.38-4.02c-5.28-4.53-5.8-11-5.87-12.72c-0.26-6.16,2.62-12.62,8.03-16.16c4.59-3,9.34-2.8,12.42-2.66
	c3.19,0.14,9.91,0.43,14.67,5.27c6.29,6.4,6.97,18.56,0.83,25.2C1014.73,774.32,1007.2,774.18,1002.96,774.1z"/>
<path class="st6" d="M1189.06,725.05c-5.04,0-10.07,0-15.11,0c0,2.12,0,4.23,0,6.35c-0.36-0.43-0.72-0.87-1.08-1.3
	c-0.19-0.15-0.39-0.31-0.58-0.46c-1.81-1.4-3.69-2.6-5.58-3.56c-6.06-3.07-11.65-3.42-14.82-3.59c-5.24-0.28-16.02-0.66-24.76,6.65
	c-10.25,8.56-10.59,21.83-10.71,26.58c-0.13,4.97-0.43,16.96,8.18,25.52c7.28,7.24,16.67,7.77,26.97,8.35
	c6.05,0.34,10.06-0.4,13.63-2.13c2.65-1.28,4.85-2.99,7.24-5.48c0.14-0.15,0.28-0.3,0.43-0.44c0,2.61,0,5.21,0,7.82
	c5.4,0,10.79,0,16.19,0C1189.06,767.92,1189.06,746.49,1189.06,725.05z M1172.87,705.57 M1151.81,773.93
	c-3.7-0.07-8.89-0.17-13.38-4.03c-5.28-4.54-5.8-11.02-5.87-12.74c-0.26-6.17,2.62-12.65,8.03-16.19c4.59-3.01,9.34-2.8,12.42-2.67
	c3.19,0.14,9.91,0.43,14.67,5.28c6.29,6.41,6.97,18.59,0.83,25.24C1163.58,774.16,1156.05,774.02,1151.81,773.93z"/>
<path class="st6" d="M1390.63,725.21c-5.04,0-10.07,0-15.11,0c0,2.12,0,4.23,0,6.35c-0.36-0.43-0.72-0.87-1.08-1.3
	c-0.19-0.15-0.39-0.31-0.58-0.46c-1.81-1.4-3.69-2.6-5.58-3.56c-6.06-3.07-11.65-3.42-14.82-3.59c-5.24-0.28-16.02-0.66-24.76,6.65
	c-10.25,8.56-10.59,21.83-10.71,26.58c-0.13,4.97-0.43,16.96,8.18,25.52c7.28,7.24,16.67,7.77,26.97,8.35
	c6.05,0.34,10.06-0.4,13.63-2.13c2.65-1.28,4.85-2.99,7.24-5.48c0.14-0.15,0.28-0.3,0.43-0.44c0,2.61,0,5.21,0,7.82
	c5.4,0,10.79,0,16.19,0C1390.63,768.08,1390.63,746.65,1390.63,725.21z M1374.44,705.73 M1353.38,774.09
	c-3.7-0.07-8.89-0.17-13.38-4.03c-5.28-4.54-5.8-11.02-5.87-12.74c-0.26-6.17,2.62-12.65,8.03-16.19c4.59-3.01,9.34-2.8,12.42-2.67
	c3.19,0.14,9.91,0.43,14.67,5.28c6.29,6.41,6.97,18.59,0.83,25.24C1365.15,774.32,1357.62,774.18,1353.38,774.09z"/>
<path class="st6" d="M1614.63,725.21c-5.04,0-10.07,0-15.11,0c0,2.12,0,4.23,0,6.35c-0.36-0.43-0.72-0.87-1.08-1.3
	c-0.19-0.15-0.39-0.31-0.58-0.46c-1.81-1.4-3.69-2.6-5.58-3.56c-6.06-3.07-11.65-3.42-14.82-3.59c-5.24-0.28-16.02-0.66-24.76,6.65
	c-10.25,8.56-10.59,21.83-10.71,26.58c-0.13,4.97-0.43,16.96,8.18,25.52c7.28,7.24,16.67,7.77,26.97,8.35
	c6.05,0.34,10.06-0.4,13.63-2.13c2.65-1.28,4.85-2.99,7.24-5.48c0.14-0.15,0.28-0.3,0.43-0.44c0,2.61,0,5.21,0,7.82
	c5.4,0,10.79,0,16.19,0C1614.63,768.08,1614.63,746.65,1614.63,725.21z M1598.44,705.73 M1577.38,774.09
	c-3.7-0.07-8.89-0.17-13.38-4.03c-5.28-4.54-5.8-11.02-5.87-12.74c-0.26-6.17,2.62-12.65,8.03-16.19c4.59-3.01,9.34-2.8,12.42-2.67
	c3.19,0.14,9.91,0.43,14.67,5.28c6.29,6.41,6.97,18.59,0.83,25.24C1589.15,774.32,1581.62,774.18,1577.38,774.09z"/>
<path class="st6" d="M205.78,725.43c-5.04,0-10.07,0-15.11,0c0,2.09,0,4.18,0,6.28c-0.36-0.43-0.72-0.86-1.08-1.29
	c-0.19-0.15-0.39-0.3-0.58-0.45c-1.81-1.39-3.69-2.57-5.58-3.52c-6.06-3.03-11.65-3.38-14.82-3.55c-5.24-0.28-16.02-0.65-24.76,6.57
	c-10.25,8.47-10.59,21.58-10.71,26.28c-0.13,4.91-0.43,16.77,8.18,25.22c7.28,7.15,16.67,7.68,26.97,8.25
	c6.05,0.34,10.06-0.4,13.63-2.11c2.65-1.26,4.85-2.95,7.24-5.42c0.14-0.14,0.28-0.3,0.43-0.44c0,2.58,0,5.15,0,7.73
	c5.4,0,10.79,0,16.19,0C205.78,767.8,205.78,746.62,205.78,725.43z M189.59,706.17 M168.53,773.75c-3.7-0.07-8.89-0.17-13.38-3.98
	c-5.28-4.49-5.8-10.89-5.87-12.59c-0.26-6.1,2.62-12.5,8.03-16c4.59-2.97,9.34-2.77,12.42-2.64c3.19,0.14,9.91,0.42,14.67,5.21
	c6.29,6.34,6.97,18.37,0.83,24.95C180.3,773.97,172.77,773.83,168.53,773.75z"/>
<path class="st2" d="M475.39,789.46c-5.54,0-11.07,0-16.61,0c0-12.62,0-25.23,0-37.85c-0.3-0.62-5.2-10.31-16.06-11.53
	c-7.9-0.88-15.72,3.08-19.89,10.1c0,13.09,0,26.18,0,39.28h-16.61v-64.08h16.46v6.68c2.57-2.32,8.41-6.93,17.09-8.27
	c1.83-0.28,15.74-2.18,26.44,7.83c6.43,6.01,8.39,13.24,9.03,16.26C475.29,761.74,475.34,775.6,475.39,789.46z"/>
<path class="st6" d="M558.07,725.4c-5.04,0-10.07,0-15.11,0c0,2.11,0,4.22,0,6.33c-0.36-0.43-0.72-0.86-1.08-1.3
	c-0.19-0.15-0.39-0.31-0.58-0.46c-1.81-1.4-3.69-2.59-5.58-3.54c-6.06-3.06-11.65-3.41-14.82-3.58c-5.24-0.28-16.02-0.65-24.76,6.62
	c-10.25,8.53-10.59,21.75-10.71,26.48c-0.13,4.95-0.43,16.9,8.18,25.42c7.28,7.21,16.67,7.74,26.97,8.32
	c6.05,0.34,10.06-0.4,13.63-2.12c2.65-1.27,4.85-2.98,7.24-5.46c0.14-0.14,0.28-0.3,0.43-0.44c0,2.6,0,5.19,0,7.79
	c5.4,0,10.79,0,16.19,0C558.07,768.11,558.07,746.76,558.07,725.4z M541.89,705.99 M520.82,774.1c-3.7-0.07-8.89-0.17-13.38-4.01
	c-5.28-4.52-5.8-10.97-5.87-12.69c-0.26-6.15,2.62-12.6,8.03-16.12c4.59-2.99,9.34-2.79,12.42-2.66c3.19,0.14,9.91,0.42,14.67,5.26
	c6.29,6.39,6.97,18.52,0.83,25.15C532.59,774.32,525.06,774.18,520.82,774.1z"/>
<path class="st6" d="M1858.58,462.27v62.1c-5.03-4.05-10.3-7.48-15.6-10.16c-15.33-7.77-29.48-8.67-37.51-9.1
	c-13.26-0.71-40.55-1.66-62.67,16.82c-25.95,21.68-26.79,55.26-27.09,67.28c-0.32,12.58-1.08,42.94,20.7,64.58
	c18.43,18.32,42.19,19.68,68.25,21.14c15.31,0.86,25.45-1.02,34.51-5.4c6.7-3.23,12.29-7.56,18.34-13.88
	c0.35-0.37,0.72-0.76,1.08-1.12c0,6.59,0,13.19,0,19.78c13.66,0,27.31,0,40.96,0c0-70.69,0-141.37,0-212.06H1858.58z M1805.27,635.3
	c-9.38-0.18-22.5-0.43-33.86-10.2c-13.36-11.49-14.68-27.88-14.86-32.25c-0.66-15.61,6.63-32.01,20.32-40.97
	c11.63-7.61,23.65-7.09,31.43-6.76c8.07,0.35,25.09,1.08,37.13,13.35c15.91,16.22,17.64,47.05,2.1,63.89
	C1835.06,635.87,1816,635.51,1805.27,635.3z"/>
<rect x="1233.32" y="509.83" class="st3" width="39.89" height="165.27"/>
<rect x="1233.32" y="463.6" class="st0" width="39.89" height="25.34"/>
<g>
	<g>
		<path class="st5" d="M1203.73,557.97h-50.21v-9.1c0-7.75-0.49-12.66-1.47-14.72c-0.98-2.06-3.44-3.1-7.36-3.1
			c-3.18,0-5.56,0.95-7.15,2.84c-1.59,1.9-2.38,4.74-2.38,8.53c0,5.14,0.4,8.91,1.19,11.31c0.79,2.4,3.18,5.03,7.15,7.9
			c3.97,2.86,12.13,7.03,24.47,12.51c16.46,7.24,27.26,14.07,32.4,20.47c5.14,6.4,7.71,15.71,7.71,27.92
			c0,13.65-1.96,23.94-5.89,30.89c-3.93,6.95-10.5,12.3-19.71,16.05c-9.21,3.75-20.32,5.62-33.31,5.62
			c-14.4,0-26.72-2.02-36.96-6.07c-10.24-4.04-17.27-9.52-21.11-16.43c-3.84-6.91-5.75-17.35-5.75-31.34v-8.09h50.21v10.61
			c0,9.01,0.63,14.87,1.89,17.56s3.76,4.04,7.5,4.04c4.02,0,6.82-0.91,8.42-2.72c1.59-1.81,2.38-5.62,2.38-11.44
			c0-8-1.03-13.01-3.09-15.04c-2.15-2.02-13.14-8-32.96-17.94c-16.64-8.42-26.79-16.07-30.44-22.93
			c-3.65-6.87-5.47-15.02-5.47-24.45c0-13.39,1.96-23.27,5.89-29.63c3.93-6.36,10.59-11.27,19.99-14.72
			c9.4-3.45,20.31-5.18,32.75-5.18c12.34,0,22.84,1.41,31.49,4.23c8.65,2.82,15.29,6.55,19.92,11.18c4.63,4.63,7.43,8.93,8.42,12.89
			c0.98,3.96,1.47,10.15,1.47,18.57V557.97z"/>
	</g>
</g>
<g>
	<defs>
		<circle id="SVGID_1_" cx="-1112.61" cy="-792.24" r="510.33"/>
	</defs>
	<clipPath id="SVGID_00000170971095061258341840000015707151724356098214_">
		<use xlink:href="#SVGID_1_"  style="overflow:visible;"/>
	</clipPath>
	
		<circle style="clip-path:url(#SVGID_00000170971095061258341840000015707151724356098214_);fill:#3A99D1;" cx="-1112.61" cy="-792.24" r="510.33"/>
	<g style="clip-path:url(#SVGID_00000170971095061258341840000015707151724356098214_);">
		<path class="st9" d="M-1512.28-759.05c12.4-21.82,38.13-65.77,72.83-122.81c12.85-12.85,0-62.83,0-62.83
			c0.07-14.9,1.36-37.62,7.85-64.26c3.97-16.3,29.77-115.5,122.1-171.35c39.15-23.68,73.3-29.31,117.97-36.66
			c46.17-7.6,117.76-19.39,199.77,5.94c134.16,41.43,205.8,151.4,218.49,196.36c16.66,59.01,7.14,116.38,7.14,116.38
			c-1.78,10.76-10.32,57.84-31.42,94.97c-3.34,5.88-13.98,25.42-26.06,53.3c-2.22,5.12-4.43,10.89-6.78,18.1
			c-11.04,33.76-13.02,61.3-14.28,80.69c-2.26,34.64-3.91,78.85,11.42,123.53c26.78,78.04,80.4,80.11,81.05,121.16
			c1.07,67.49-142.83,127.72-248.14,145.17c-110.34,18.29-194.15-7.97-199.93-24.99c-4.44-13.07,7.4-17.17,9.28-47.13
			c0.62-9.93-0.54-17.63-1.35-22.46c-10.39-61.49-40.41-120.84-44.34-128.63c-1.32-2.61-3.89-7.55-9.28-11
			c-11.83-7.57-27.72-1.85-35.7,0.71c-42.91,13.77-88.58,10.32-113.53-1.43c-11.41-5.37-16.67-11.64-19.45-15.97
			c-5.52-8.59-6.17-17.29-6.79-27.05c-1.32-20.83,4.82-21.79,1.61-32.13c-4.8-15.46-19.25-15.61-21.96-31.6
			c-0.52-3.1,0.17-2.19-0.54-16.78c-0.35-7.08,0.4-9.27,1.61-11.6c2.27-4.35,5.48-5.3,5.33-7.91c-0.18-3.11-4.82-3.6-8.01-6.55
			c-8.02-7.43,0.18-23.81-2.01-51.99c-0.29-3.73-0.72-7.14-2.99-10.49c-4.91-7.24-14.1-7.75-23.81-9.64
			c-6.72-1.3-38.86-7.55-44.02-22.67C-1518.6-747.69-1514.61-754.96-1512.28-759.05z"/>
	</g>
	<path style="clip-path:url(#SVGID_00000170971095061258341840000015707151724356098214_);fill:#3A99D1;" d="M-1084.89-848.44
		v568.97h-18.25V-791.5c-28.19-28.42-56.37-56.84-84.56-85.27c-32.41,0-64.81,0-97.22,0c-3.07-2.17-6.15-4.35-9.22-6.52
		c-1.12,0.37-2.66,0.74-4.48,0.75c-8.61,0.05-20.58-7.87-20.58-20.45c0-11.28,9.21-20.45,20.58-20.45
		c11.32,0,20.52,9.17,20.52,20.45c0,2.37-0.43,4.64-1.19,6.75c-0.33,1.08-0.81,2.16-1.35,3.13h98.22
		c26.42,27.13,52.85,54.25,79.27,81.38v-34.7c-26.89-27.9-53.78-55.8-80.68-83.7c-58.91-0.06-117.82-0.12-176.72-0.17
		c-7.06-7.14-14.11-14.27-21.17-21.41c-0.7,0.43-1.79,1.02-3.22,1.45c0,0-2.18,0.54-4.71,0.54c-11.37,0-20.58-9.17-20.58-20.45
		c0-11.33,9.2-20.45,20.58-20.45c11.32,0,20.52,9.12,20.52,20.45c0,3.29-0.81,6.48-2.27,9.23c4.85,4.55,9.71,9.1,14.57,13.65
		c59.6,0.27,119.2,0.54,178.8,0.81C-1146.98-913.81-1115.94-881.12-1084.89-848.44z"/>
	<path style="clip-path:url(#SVGID_00000170971095061258341840000015707151724356098214_);fill:#3A99D1;" d="M-1182.74-1023.47
		c-42.02-0.03-84.03-0.06-126.05-0.09c-10.84-11.84-21.68-23.69-32.52-35.53c-1.73,0.71-4.25,1.47-7.28,1.36
		c-8.83-0.3-20.52-7.88-20.52-20.52c0-11.37,9.15-20.52,20.52-20.52c11.32,0,20.52,9.15,20.52,20.52c0,3.03-0.65,5.96-1.9,8.5
		l29.84,29.78h79.81l-42.61-42.67c-1.41,0.43-2.92,0.6-4.44,0.6c-10.29,0-18.63-8.34-18.63-18.63c0-10.29,8.34-18.63,18.63-18.63
		c10.29,0,18.63,8.34,18.63,18.63c0,3.41-0.92,6.61-2.6,9.37C-1228.47-1068.69-1205.61-1046.08-1182.74-1023.47z"/>
	<path style="clip-path:url(#SVGID_00000170971095061258341840000015707151724356098214_);fill:#3A99D1;" d="M-1062.36-978.24
		l-14.13,14.13c-61.34-62.72-122.69-125.44-184.03-188.16c-8.6,0-17.19,0-25.79,0c-10.01,9.37-20.02,18.74-30.04,28.12
		c0.69,10.52-7.59,19.51-17.78,19.75c-10.28,0.25-18.63-8.51-18.63-18.63c0-10.29,8.34-18.63,18.63-18.63
		c2.65,0,5.14,0.54,7.42,1.52l28.1-28.1c16.71,0,33.42,0,50.13,0C-1186.44-1104.91-1124.4-1041.57-1062.36-978.24z"/>
	<g style="clip-path:url(#SVGID_00000170971095061258341840000015707151724356098214_);">
		<polygon points="-994.09,-720.71 -995.33,-720.71 -995.33,-719.47 -994.09,-720.71 		"/>
	</g>
	<path style="clip-path:url(#SVGID_00000170971095061258341840000015707151724356098214_);fill:#3A99D1;" d="M-857.41-728.44
		c0,8.51-7.49,14.81-15.06,15.48c-6.03,0.53-12.02-2.51-15.65-7.87h-15.32l-18.19,13.78v427.59h-18.19
		c-0.83-143.6-1.66-287.2-2.49-430.8c10.05-8.6,20.11-17.19,30.16-25.79h24.04c3.64-5.42,9.72-8.47,15.8-7.88
		C-864.78-743.2-857.41-736.89-857.41-728.44z"/>
	<polygon style="clip-path:url(#SVGID_00000170971095061258341840000015707151724356098214_);fill:#3A99D1;" points="
		-1084.89,-848.34 -1084.89,-847.96 -1085.27,-848.34 	"/>
	<path style="clip-path:url(#SVGID_00000170971095061258341840000015707151724356098214_);fill:#3A99D1;" d="M-947.79-1125.9
		c0,6.44-3.25,12.07-8.23,15.43v114.14c-0.54,0.4-1.08,0.79-1.62,1.19l-22.74,22.74c0.11,0.76,0.16,1.52,0.16,2.27
		c0,10.29-8.34,18.63-18.63,18.63c-10.29,0-18.63-8.34-18.63-18.63c0-10.29,8.34-18.63,18.63-18.63c2.82,0,5.47,0.6,7.85,1.73
		l14.94-14.94v-108.02c-5.41-3.25-8.99-9.15-8.99-15.92c0-10.29,8.34-18.63,18.63-18.63
		C-956.13-1144.53-947.79-1136.19-947.79-1125.9z"/>
	<path style="clip-path:url(#SVGID_00000170971095061258341840000015707151724356098214_);fill:#3A99D1;" d="M-809.98-992.59
		c0,6.61-3.41,12.4-8.61,15.65v35.9l-1.08,1.08l-211.34,211.34v449.15h-18.19v-559.78c0.31-1.53,0.61-3.07,0.92-4.6l134.72-134.77
		v-73.48c-4.71-3.36-7.74-8.83-7.74-15.05c0-10.29,8.34-18.63,18.63-18.63c10.29,0,18.63,8.34,18.63,18.63
		c0,6.99-3.79,13.05-9.48,16.24c-0.01,25.39-0.02,50.78-0.03,76.16c-45.82,47.3-91.64,94.59-137.45,141.89v27.18l74.02-74.02
		c-1.19-2.38-1.79-5.09-1.79-7.91c0-10.29,8.34-18.63,18.63-18.63c10.29,0,18.63,8.34,18.63,18.63c0,10.02-7.91,18.19-17.87,18.57
		l-91.62,91.62v20.52l192.44-192.44v-27.56c-5.2-3.3-8.66-9.1-8.66-15.7c0-10.29,8.34-18.63,18.63-18.63
		C-818.32-1011.21-809.98-1002.88-809.98-992.59z"/>
	<path style="clip-path:url(#SVGID_00000170971095061258341840000015707151724356098214_);fill:#3A99D1;" d="M-791.36-844.42
		c0,9.97-8.34,18.05-18.63,18.05c-2.87,0-5.58-0.63-7.96-1.73l-20.03,19.47v1.63h-43.26l-95.84,92.82v434.72h-18.25V-723.9
		l106.18-102.9v-2.1h49.06l11.97-11.6c-0.33-1.26-0.49-2.57-0.49-3.94c0-9.97,8.34-18.05,18.63-18.05
		C-799.69-862.47-791.36-854.39-791.36-844.42z"/>
	<path style="clip-path:url(#SVGID_00000170971095061258341840000015707151724356098214_);fill:#3A99D1;" d="M-1017.48-921.33
		c0,10.29-8.34,18.63-18.63,18.63c-2.6,0-5.04-0.54-7.26-1.46h-0.05l-16.19,16.19c-3.1,3.43-6.21,6.87-9.31,10.3
		c-31.11-32.19-62.23-64.37-93.34-96.56c-62.11,0-124.22,0-186.33,0c-10.76-11.35-21.51-22.71-32.27-34.06c-2.65,1.3-5.63,2-8.77,2
		c-11.37,0-20.58-9.2-20.58-20.58c0-11.32,9.2-20.52,20.58-20.52c11.32,0,20.52,9.21,20.52,20.52c0,2.92-0.6,5.74-1.79,8.28
		l27.94,27.94h187.13c28.97,31.12,57.94,62.23,86.91,93.35l16.03-15.97c-1.19-2.44-1.84-5.2-1.84-8.07
		c0-10.29,8.34-18.63,18.63-18.63S-1017.48-931.62-1017.48-921.33z"/>
	<path style="clip-path:url(#SVGID_00000170971095061258341840000015707151724356098214_);fill:#3A99D1;" d="M-1056.73-1082.04
		c0,10.29-8.34,18.63-18.63,18.63s-18.63-8.34-18.63-18.63c0-0.76,0.05-1.52,0.16-2.22c-26.87-28.46-53.74-56.93-80.62-85.39
		c-10.34,0-20.69,0-31.04,0c-3.41,3.52-8.18,5.74-13.43,5.74c-10.29,0-18.63-8.34-18.63-18.63c0-10.29,8.34-18.63,18.63-18.63
		c7.74,0,14.4,4.77,17.22,11.48h34.22c28.81,29.98,57.61,59.96,86.42,89.94c1.79-0.6,3.68-0.92,5.69-0.92
		C-1065.07-1100.67-1056.73-1092.33-1056.73-1082.04z"/>
	<path style="clip-path:url(#SVGID_00000170971095061258341840000015707151724356098214_);fill:#3A99D1;" d="M-1010.82-1158.06
		v130.71h-18.41v-122.05c-7.44-8.61-14.87-17.22-22.31-25.83c-8.9,0-17.79,0-26.69,0c-3.25,5.25-9.1,8.77-15.76,8.77
		c-10.29,0-18.63-8.34-18.63-18.63c0-10.29,8.34-18.63,18.63-18.63c8.23,0,15.22,5.36,17.65,12.78h35.58
		C-1030.78-1179.97-1020.8-1169.02-1010.82-1158.06z"/>
	<polyline style="clip-path:url(#SVGID_00000170971095061258341840000015707151724356098214_);fill:#3A99D1;" points="
		-1085.7,-981.44 -1023.55,-1040.69 -1010.85,-1027.36 -1068.88,-972.04 	"/>
</g>
<path class="st6" d="M270.16,765.94h18.32c-4.75,13.95-20.54,23.86-35.63,23.86c-18.25,0-37.55-14.48-37.06-33.18
	c0.49-18.7,20.54-31.84,38.41-31.23c14.93,0.49,31.1,10.65,34.88,25.41h-18.81c-3.2-5.73-9.99-9.69-17.81-9.69
	c-10.93,0-19.8,7.69-19.8,17.17c0,9.48,8.87,17.17,19.8,17.17C260.21,775.43,266.92,771.57,270.16,765.94z"/>
<path class="st6" d="M1513.02,765.61h18.32c-4.75,13.95-20.54,23.86-35.63,23.86c-18.25,0-37.55-14.48-37.06-33.18
	c0.49-18.7,20.54-31.84,38.41-31.23c14.93,0.49,31.1,10.65,34.88,25.41h-18.81c-3.2-5.73-9.99-9.69-17.81-9.69
	c-10.93,0-19.8,7.69-19.8,17.17c0,9.48,8.87,17.17,19.8,17.17C1503.07,775.1,1509.78,771.24,1513.02,765.61z"/>
<path class="st6" d="M932.05,757.35h24.67c-6.39,18.78-27.65,32.11-47.96,32.11c-24.56,0-50.55-19.49-49.89-44.66
	c0.66-25.17,27.65-42.86,51.71-42.04c20.1,0.66,41.86,14.34,46.95,34.2H932.2c-4.3-7.71-13.44-13.05-23.98-13.05
	c-14.71,0-26.65,10.35-26.65,23.11c0,12.76,11.94,23.11,26.65,23.11C918.66,770.13,927.69,764.93,932.05,757.35z"/>
<path class="st3" d="M360.29,723.13c-19.82,0-35.9,14.84-35.9,33.15c0,18.32,16.08,33.17,35.9,33.17c19.8,0,35.89-14.86,35.89-33.17
	C396.18,737.97,380.1,723.13,360.29,723.13z M359.43,773.78c-10.48,0-18.98-7.87-18.98-17.57s8.5-17.57,18.98-17.57
	c10.48,0,18.98,7.87,18.98,17.57S369.92,773.78,359.43,773.78z"/>
<rect x="568.07" y="703.07" class="st6" width="15.76" height="86.4"/>
<path class="st6" d="M1077.03,739.2v28c0.02,0.99,0.22,3.89,2.57,6.63c2.91,3.35,6.96,4.01,7.9,4.14h17.4v11.5
	c-9.2,0-18.39,0-27.59,0c-0.93-0.11-2.25-0.34-3.72-0.89c-2.57-0.96-4.11-2.32-6.18-4.18c-2.36-2.12-3.84-3.46-4.73-5.69
	c-0.8-1.98-0.73-3.68-0.7-4.35c0.15-4.32,0.09-17.17,0-35.15c-3.86,0-7.72,0-11.59,0v-13.77h11.59v-16.71h15.05v16.71h29.48v13.77
	H1077.03z"/>
<path class="st10" d="M960.53,1477.57"/>
<path class="st6" d="M1308.02,748.59c0,13.62,0,27.25,0,40.87c-4.4,0-8.8,0-13.2,0c0-13.07,0-26.13,0-39.2
	c-0.16-0.72-0.44-1.76-1-2.89c-2.87-5.83-9.96-8.43-15.55-8.49c-1.97-0.02-5.54,0.25-9.33,2.36c-4.12,2.29-6.31,5.52-7.2,7.03
	c0.04,13.74,0.08,27.47,0.12,41.21h-15.31c0-13.74,0-27.47,0-41.21c-0.96-1.35-6.68-9.1-15.43-9.38c-0.65-0.02-3.15-0.06-6.22,0.99
	c-6.04,2.05-9.35,6.6-10.52,8.39c0,13.74,0,27.47,0,41.21h-15.31v-63.97h15.31v6.62c0.44-0.35,1.1-0.85,1.93-1.4
	c7.59-5.06,15.37-5.21,16.74-5.22c6.71-0.04,11.81,2.22,14.38,3.6c0.02,0,0.02,0,0.02,0.02c2.01,1.17,4.11,2.74,6.14,4.65
	c0.89,0.85,1.73,1.69,2.5,2.56c0.67-0.72,1.38-1.43,2.13-2.13c4.21-3.93,8.68-6.5,11.96-7.13c2.29-0.76,5.96-1.7,10.49-1.57
	c2.68,0.07,11.74,0.47,19.3,7.63c1.91,1.81,6.22,5.86,7.63,12.4C1307.87,746.78,1307.97,747.85,1308.02,748.59z"/>
<g>
	<path d="M1044.78,1463.3c-0.04,0.05-0.07,0.11-0.1,0.16c0.03-0.02,0.07-0.05,0.1-0.07V1463.3L1044.78,1463.3z"/>
</g>
<g>
	<path d="M1068.91,1462.88c-0.02,0.01-0.04,0.03-0.06,0.04c0,0.08,0,0.16-0.01,0.24c0.02-0.04,0.04-0.07,0.07-0.1V1462.88
		L1068.91,1462.88z"/>
</g>
<path class="st11" d="M1085.89,1463.92c-0.07-0.14-0.15-0.27-0.23-0.4"/>
</svg>