<?xml version="1.0" encoding="utf-8"?>
<!-- Generator: Adobe Illustrator 28.0.0, SVG Export Plug-In . SVG Version: 6.00 Build 0)  -->
<svg version="1.1" id="Capa_1" xmlns="http://www.w3.org/2000/svg" xmlns:xlink="http://www.w3.org/1999/xlink" x="0px" y="0px"
	 viewBox="0 0 1920 1080" style="enable-background:new 0 0 1920 1080;" xml:space="preserve">
<style type="text/css">
	.st0{fill:#2E42B3;}
	.st1{fill:#3A99F7;}
	.st2{fill:#339EFF;}
	.st3{fill:#389BFF;}
	.st4{fill:#3040AF;}
	.st5{fill:#359DFF;}
	.st6{fill:#359CFF;}
	.st7{fill:none;stroke:#000000;stroke-miterlimit:10;}
	.st8{clip-path:url(#SVGID_00000111182246249146142340000014409604339758432652_);fill:#3A99D1;}
	.st9{clip-path:url(#SVGID_00000111182246249146142340000014409604339758432652_);}
	.st10{fill:#FFFFFF;}
	.st11{clip-path:url(#SVGID_00000057139722895000149930000003265820237566439090_);fill:#3A99D1;}
	.st12{clip-path:url(#SVGID_00000057139722895000149930000003265820237566439090_);}
	.st13{fill:none;stroke:#000000;stroke-width:0.25;stroke-miterlimit:10;}
	.st14{fill:none;stroke:#000000;stroke-width:0.2592;stroke-miterlimit:10;}
</style>
<g>
	<path class="st0" d="M456.54-377.52c2.99,0,5.98,0,8.97,0v73.32c3.72,14.92,17.24,25.45,32.57,25.38
		c15.24-0.06,28.62-10.56,32.31-25.38c0-24.44,0-48.88,0-73.32h7.91c0,24.4,0,48.8,0,73.2c-4.88,18.98-21.97,32.21-41.01,32.08
		c-17.7-0.12-33.68-11.76-39.52-28.95C457.37-326.63,456.95-352.08,456.54-377.52z"/>
</g>
<g>
	<path class="st0" d="M554.13-274.13h-7.25v-102.59h15.16l59.21,100.88h1.85v-100.88h7.25v102.59h-15.69l-59.93-101.8
		c-0.33,0-0.66,0-0.99,0C553.86-342,553.99-308.07,554.13-274.13z"/>
</g>
<g>
	<path class="st0" d="M735.3-307.5c-1.09,4.75-2.96,9.91-6.16,14.96c0,0-1.79,2.82-3.88,5.25c-5.73,6.67-21.3,15.65-40.19,15
		c-4.41-0.15-27.75-0.96-41.03-19.31c-8.26-11.42-8.35-23.72-8.42-32.12c-0.08-8.99-0.23-24.83,11.16-37.91
		c13.33-15.3,32.93-15.76,38.29-15.89c5.52-0.14,21.01-0.54,34.29,10.29c9.71,7.91,14.01,18.39,15.93,27.29h-6.24
		c-1.65-7.45-5.22-15.94-12.99-22.55c-11.47-9.75-25.25-9.56-30.33-9.49c-5.33,0.07-19.87,0.27-30.86,10.98
		c-11.04,10.77-11.45,25.32-11.73,35.37c-0.29,10.2-0.66,23.54,8.86,34.57c11.49,13.33,28.93,13.46,33.73,13.5
		c4.61,0.03,21.11,0.15,33.36-12.42c5.32-5.47,8.21-11.67,9.76-17.52H735.3z"/>
</g>
<path class="st0" d="M781.53-376.07l37.16,102.91h-7.66c-12.32-34.3-24.63-68.61-36.95-102.91
	C776.57-376.07,779.05-376.07,781.53-376.07z"/>
<path class="st1" d="M773.19-376.07c-11.92,34.33-23.85,68.66-35.77,102.99h-7.78l36-102.99
	C768.16-376.07,770.68-376.07,773.19-376.07z"/>
<g>
	<path class="st0" d="M22.8,176.33c15.46,0,30.93,0,46.39,0v379.31c19.22,77.18,89.18,131.64,168.51,131.33
		c78.83-0.31,148.04-54.63,167.14-131.33c0-126.44,0-252.88,0-379.31h40.93c0,126.24,0,252.48,0,378.72
		c-25.23,98.19-113.68,166.62-212.16,165.96c-91.56-0.62-174.27-60.83-204.44-149.78C27.05,439.6,24.93,307.96,22.8,176.33z"/>
</g>
<g>
	<path class="st0" d="M527.64,711.19h-37.52V180.43h78.45l306.32,521.9h9.55v-521.9h37.52v530.77h-81.18L530.71,184.52
		c-1.71,0-3.41,0-5.12,0C526.28,360.08,526.96,535.64,527.64,711.19z"/>
</g>
<g>
	<path class="st0" d="M1464.94,538.58c-5.63,24.56-15.32,51.24-31.88,77.39c0,0-9.24,14.57-20.06,27.17
		c-29.64,34.51-110.21,80.98-207.92,77.6c-22.82-0.79-143.59-4.96-212.27-99.9c-42.72-59.06-43.17-122.73-43.56-166.17
		c-0.41-46.51-1.19-128.46,57.74-196.13c68.96-79.15,170.36-81.53,198.09-82.21c28.56-0.72,108.69-2.79,177.4,53.24
		c50.23,40.92,72.48,95.14,82.41,141.18h-32.28c-8.54-38.54-27.01-82.47-67.2-116.66c-59.34-50.44-130.63-49.46-156.91-49.1
		c-27.57,0.36-102.8,1.4-159.65,56.8c-57.12,55.72-59.24,130.99-60.68,182.99c-1.5,52.77-3.41,121.78,45.84,178.85
		c59.44,68.96,149.67,69.64,174.5,69.84c23.85,0.16,109.21,0.78,172.59-64.25c27.52-28.3,42.47-60.37,50.49-90.64H1464.94z"/>
</g>
<path class="st0" d="M1704.13,183.84l192.26,532.43h-39.65c-63.72-177.48-127.43-354.95-191.15-532.43
	C1678.43,183.84,1691.28,183.84,1704.13,183.84z"/>
<path class="st1" d="M1660.98,183.84c-61.68,177.6-123.37,355.21-185.05,532.81h-40.25l186.25-532.81
	C1634.94,183.84,1647.96,183.84,1660.98,183.84z"/>
<path class="st2" d="M469.13-248.2h20.57v47.87c0.37,0.77,6.44,12.83,19.88,14.34c9.78,1.1,19.46-3.83,24.63-12.56
	c0-16.29,0-32.57,0-48.86h20.57v79.71H534.4v-8.31c-3.18,2.89-10.41,8.62-21.16,10.29c-2.27,0.35-19.49,2.71-32.73-9.74
	c-7.96-7.48-10.39-16.47-11.18-20.23C469.26-213.19,469.19-230.7,469.13-248.2z"/>
<path class="st2" d="M652.81-168.32h-20.57v-47.87c-0.37-0.77-6.44-12.83-19.88-14.34c-9.78-1.1-19.46,3.83-24.63,12.56
	c0,16.29,0,32.57,0,48.86h-20.57v-79.71h20.37v8.31c3.18-2.89,10.41-8.62,21.16-10.29c2.27-0.35,19.49-2.71,32.73,9.74
	c7.96,7.48,10.39,16.47,11.18,20.23C652.68-203.33,652.74-185.82,652.81-168.32z"/>
<path class="st2" d="M505.71-112.53h-8.13v-18.91c-0.15-0.3-2.54-5.07-7.85-5.67c-3.86-0.43-7.69,1.51-9.73,4.96
	c0,6.43,0,12.87,0,19.3h-8.13v-31.5h8.05v3.28c1.26-1.14,4.11-3.41,8.36-4.06c0.9-0.14,7.7-1.07,12.93,3.85
	c3.15,2.96,4.1,6.51,4.42,7.99C505.66-126.37,505.68-119.45,505.71-112.53z"/>
<rect x="665.19" y="-249.06" class="st3" width="19.52" height="80.85"/>
<rect x="665.19" y="-268.48" class="st0" width="19.52" height="12.4"/>
<rect x="591.48" y="-143.58" class="st3" width="7.71" height="31.21"/>
<rect x="591.23" y="-150.64" class="st3" width="7.71" height="4.9"/>
<path class="st4" d="M764.41-168.33c8.01-26.87,16.02-53.74,24.03-80.61c-6.76,0-13.52,0-20.27,0
	c-8.57,26.87-17.15,53.74-25.72,80.61C749.77-168.33,757.09-168.33,764.41-168.33z"/>
<path class="st5" d="M741.56-168.33c-7.83-26.87-15.67-53.74-23.5-80.61c-6.99,0-13.98,0-20.97,0c8.2,26.87,16.4,53.74,24.59,80.61
	C728.31-168.33,734.94-168.33,741.56-168.33z"/>
<path class="st5" d="M890.5-198.73 M891.42-211.36c-0.18-4.02-0.59-11.27-4.94-19.3c-1.57-2.9-5.56-9.4-13.21-14.48
	c-9.99-6.62-20.09-6.76-26.35-6.77c-8.47,0-24.65-0.01-36.01,12.28c-10.09,10.91-10.08,24.73-10.08,28.97
	c0,3.82,0.01,19.44,12.07,31.36c12.19,12.06,28.02,11.77,34.02,11.66c3.33-0.06,20.92-0.39,33.44-13.04
	c5.14-5.19,7.55-10.57,8.1-11.83c0.82-1.91,1.43-3.76,1.88-5.53h-22.26c-1.34,1.69-3.6,4.17-6.99,6.33
	c-1.06,0.68-12.9,7.98-25.73,2.88c-1.93-0.76-11.27-4.47-13.69-13.19c-0.62-2.21-0.63-4.17-0.53-5.51h69.36h0.92V-211.36z
	 M824.57-222.24c1.56-1.85,7.4-8.28,17.14-9.69c14.44-2.08,24.39,8.79,25.19,9.69H824.57z"/>
<path class="st5" d="M836.21-124.67 M836.57-129.66c-0.07-1.59-0.23-4.45-1.95-7.63c-0.62-1.15-2.2-3.71-5.22-5.72
	c-3.95-2.62-7.94-2.67-10.41-2.67c-3.35,0-9.74,0-14.23,4.85c-3.99,4.31-3.98,9.77-3.98,11.45c0,1.51,0,7.68,4.77,12.39
	c4.82,4.77,11.07,4.65,13.44,4.61c1.32-0.02,8.27-0.15,13.21-5.15c2.03-2.05,2.98-4.18,3.2-4.67c0.32-0.75,0.57-1.49,0.74-2.18h-8.8
	c-0.53,0.67-1.42,1.65-2.76,2.5c-0.42,0.27-5.1,3.15-10.17,1.14c-0.76-0.3-4.45-1.77-5.41-5.21c-0.24-0.87-0.25-1.65-0.21-2.18
	h27.41h0.36V-129.66z M810.16-133.95c0.62-0.73,2.92-3.27,6.77-3.83c5.71-0.82,9.64,3.47,9.95,3.83H810.16z"/>
<path class="st5" d="M924.47-248.89c-6.66,0-13.32,0-19.98,0c-0.23,26.86-0.46,53.72-0.69,80.57c6.89,0,13.78,0,20.67,0
	c0-15.26,0-30.53,0-45.79c2.06-3.41,5.67-8.18,11.59-11.79c7.1-4.33,14.11-4.94,18.42-5.31c3.57-0.31,6.58-0.19,8.75,0
	c0-5.9,0-11.79,0-17.69c-1.68-0.07-4.04-0.12-6.86,0c-6.3,0.28-13.24,0.58-20.24,3.93c-2.88,1.38-7.33,4.01-11.67,9.11
	C924.47-240.2,924.47-244.54,924.47-248.89z"/>
<path class="st5" d="M1138.75-143.64c-2.72-0.01-5.44-0.02-8.17-0.03c0,10.43,0,20.87,0,31.3c2.72,0,5.44,0,8.17,0
	c0-5.92,0-11.85,0-17.77c0.81-1.32,2.24-3.17,4.58-4.58c2.81-1.68,5.58-1.92,7.28-2.06c1.41-0.12,2.6-0.07,3.46,0
	c0-2.29,0-4.58,0-6.86c-0.66-0.03-1.6-0.05-2.71,0c-2.49,0.11-5.23,0.23-8,1.53c-1.14,0.53-2.9,1.56-4.61,3.53
	C1138.75-140.27,1138.75-141.96,1138.75-143.64z"/>
<path class="st6" d="M1150.78-272.44v30.38c-2.46-1.98-5.04-3.66-7.63-4.97c-7.5-3.8-14.42-4.24-18.35-4.45
	c-6.49-0.35-19.84-0.81-30.66,8.23c-12.69,10.6-13.11,27.03-13.25,32.92c-0.16,6.16-0.53,21,10.12,31.59
	c9.02,8.96,20.64,9.63,33.39,10.34c7.49,0.42,12.45-0.5,16.88-2.64c3.28-1.58,6.01-3.7,8.97-6.79c0.17-0.18,0.35-0.37,0.53-0.55
	c0.04,3.23,0.08,6.45,0.13,9.68c6.64,0,13.28,0,19.91,0c0-34.58,0-69.16,0-103.74H1150.78z M1124.7-187.79
	c-4.59-0.09-11.01-0.21-16.57-4.99c-6.54-5.62-7.18-13.64-7.27-15.78c-0.32-7.64,3.24-15.66,9.94-20.04
	c5.69-3.72,11.57-3.47,15.37-3.3c3.95,0.17,12.28,0.53,18.16,6.53c7.78,7.94,8.63,23.02,1.02,31.25
	C1139.27-187.51,1129.95-187.69,1124.7-187.79z"/>
<path class="st6" d="M787.96-153.39v12c-0.97-0.78-1.99-1.45-3.01-1.96c-2.96-1.5-5.7-1.68-7.25-1.76
	c-2.56-0.14-7.84-0.32-12.11,3.25c-5.01,4.19-5.18,10.68-5.24,13.01c-0.06,2.43-0.21,8.3,4,12.48c3.56,3.54,8.16,3.8,13.19,4.09
	c2.96,0.17,4.92-0.2,6.67-1.04c1.3-0.62,2.37-1.46,3.54-2.68c0.07-0.07,0.14-0.15,0.21-0.22c0.02,1.27,0.03,2.55,0.05,3.82
	c2.62,0,5.25,0,7.87,0c0-13.66,0-27.33,0-40.99H787.96z M777.66-119.94c-1.81-0.03-4.35-0.08-6.55-1.97
	c-2.58-2.22-2.84-5.39-2.87-6.23c-0.13-3.02,1.28-6.19,3.93-7.92c2.25-1.47,4.57-1.37,6.07-1.31c1.56,0.07,4.85,0.21,7.18,2.58
	c3.08,3.14,3.41,9.09,0.4,12.35C783.42-119.83,779.73-119.9,777.66-119.94z"/>
<path class="st6" d="M1272.7-248.31c-6.24,0-12.47,0-18.71,0c0,2.62,0,5.24,0,7.86c-0.44-0.54-0.89-1.07-1.33-1.61
	c-0.24-0.19-0.48-0.38-0.72-0.57c-2.24-1.74-4.57-3.22-6.91-4.4c-7.5-3.8-14.42-4.24-18.35-4.45c-6.49-0.35-19.84-0.81-30.66,8.23
	c-12.69,10.6-13.11,27.03-13.25,32.92c-0.16,6.16-0.53,21,10.12,31.59c9.02,8.96,20.64,9.63,33.39,10.34
	c7.49,0.42,12.45-0.5,16.88-2.64c3.28-1.58,6.01-3.7,8.97-6.79c0.17-0.18,0.35-0.37,0.53-0.55c0,3.23,0,6.45,0,9.68
	c6.68,0,13.36,0,20.04,0C1272.7-195.24,1272.7-221.77,1272.7-248.31z M1252.66-272.44 M1226.58-187.79
	c-4.59-0.09-11.01-0.21-16.57-4.99c-6.54-5.62-7.18-13.64-7.27-15.78c-0.32-7.64,3.24-15.66,9.94-20.04
	c5.69-3.72,11.57-3.47,15.37-3.3c3.95,0.17,12.28,0.53,18.16,6.53c7.78,7.94,8.63,23.02,1.02,31.25
	C1241.15-187.51,1231.83-187.69,1226.58-187.79z"/>
<path class="st6" d="M954.26-143.76c-2.46,0-4.93,0-7.39,0c0,1.03,0,2.07,0,3.1c-0.18-0.21-0.35-0.42-0.53-0.63
	c-0.09-0.08-0.19-0.15-0.28-0.22c-0.89-0.68-1.81-1.27-2.73-1.74c-2.96-1.5-5.7-1.67-7.25-1.76c-2.56-0.14-7.84-0.32-12.11,3.25
	c-5.01,4.18-5.18,10.66-5.24,12.98c-0.06,2.43-0.21,8.28,4,12.46c3.56,3.53,8.16,3.8,13.19,4.08c2.96,0.17,4.92-0.2,6.67-1.04
	c1.3-0.62,2.37-1.46,3.54-2.68c0.07-0.07,0.14-0.15,0.21-0.22c0,1.27,0,2.54,0,3.82c2.64,0,5.28,0,7.92,0
	C954.26-122.83,954.26-133.29,954.26-143.76z M946.34-153.27 M936.04-119.89c-1.81-0.03-4.35-0.08-6.55-1.97
	c-2.58-2.22-2.84-5.38-2.87-6.22c-0.13-3.01,1.28-6.18,3.93-7.9c2.25-1.47,4.57-1.37,6.07-1.3c1.56,0.07,4.85,0.21,7.18,2.58
	c3.08,3.13,3.41,9.08,0.4,12.33C941.8-119.78,938.11-119.85,936.04-119.89z"/>
<path class="st6" d="M1027.08-143.88c-2.46,0-4.93,0-7.39,0c0,1.04,0,2.07,0,3.11c-0.18-0.21-0.35-0.42-0.53-0.64
	c-0.09-0.08-0.19-0.15-0.28-0.22c-0.89-0.69-1.81-1.27-2.73-1.74c-2.96-1.5-5.7-1.68-7.25-1.76c-2.56-0.14-7.84-0.32-12.11,3.25
	c-5.01,4.19-5.18,10.68-5.24,13.01c-0.06,2.43-0.21,8.3,4,12.48c3.56,3.54,8.16,3.8,13.19,4.09c2.96,0.17,4.92-0.2,6.67-1.04
	c1.3-0.62,2.37-1.46,3.54-2.68c0.07-0.07,0.14-0.15,0.21-0.22c0,1.27,0,2.55,0,3.82c2.64,0,5.28,0,7.92,0
	C1027.08-122.91,1027.08-133.4,1027.08-143.88z M1019.16-153.41 M1008.86-119.97c-1.81-0.03-4.35-0.08-6.55-1.97
	c-2.58-2.22-2.84-5.39-2.87-6.23c-0.13-3.02,1.28-6.19,3.93-7.92c2.25-1.47,4.57-1.37,6.07-1.31c1.56,0.07,4.85,0.21,7.18,2.58
	c3.08,3.14,3.41,9.09,0.4,12.35C1014.62-119.86,1010.93-119.93,1008.86-119.97z"/>
<path class="st6" d="M1125.69-143.8c-2.46,0-4.93,0-7.39,0c0,1.04,0,2.07,0,3.11c-0.18-0.21-0.35-0.42-0.53-0.64
	c-0.09-0.08-0.19-0.15-0.28-0.22c-0.89-0.69-1.81-1.27-2.73-1.74c-2.96-1.5-5.7-1.68-7.25-1.76c-2.56-0.14-7.84-0.32-12.11,3.25
	c-5.02,4.19-5.18,10.68-5.24,13.01c-0.06,2.43-0.21,8.3,4,12.48c3.56,3.54,8.16,3.8,13.19,4.09c2.96,0.17,4.92-0.2,6.67-1.04
	c1.3-0.62,2.37-1.46,3.54-2.68c0.07-0.07,0.14-0.15,0.21-0.22c0,1.27,0,2.55,0,3.82c2.64,0,5.28,0,7.92,0
	C1125.69-122.83,1125.69-133.32,1125.69-143.8z M1117.77-153.34 M1107.46-119.89c-1.81-0.03-4.35-0.08-6.55-1.97
	c-2.58-2.22-2.84-5.39-2.87-6.23c-0.13-3.02,1.28-6.19,3.93-7.92c2.25-1.47,4.57-1.37,6.07-1.31c1.56,0.07,4.85,0.21,7.18,2.58
	c3.08,3.14,3.41,9.09,0.4,12.35C1113.22-119.78,1109.54-119.85,1107.46-119.89z"/>
<path class="st6" d="M1235.27-143.8c-2.46,0-4.93,0-7.39,0c0,1.04,0,2.07,0,3.11c-0.18-0.21-0.35-0.42-0.53-0.64
	c-0.09-0.08-0.19-0.15-0.28-0.22c-0.89-0.69-1.81-1.27-2.73-1.74c-2.96-1.5-5.7-1.68-7.25-1.76c-2.56-0.14-7.84-0.32-12.11,3.25
	c-5.01,4.19-5.18,10.68-5.24,13.01c-0.06,2.43-0.21,8.3,4,12.48c3.56,3.54,8.16,3.8,13.19,4.09c2.96,0.17,4.92-0.2,6.67-1.04
	c1.3-0.62,2.37-1.46,3.54-2.68c0.07-0.07,0.14-0.15,0.21-0.22c0,1.27,0,2.55,0,3.82c2.64,0,5.28,0,7.92,0
	C1235.27-122.83,1235.27-133.32,1235.27-143.8z M1227.35-153.34 M1217.04-119.89c-1.81-0.03-4.35-0.08-6.55-1.97
	c-2.58-2.22-2.84-5.39-2.87-6.23c-0.13-3.02,1.28-6.19,3.93-7.92c2.25-1.47,4.57-1.37,6.07-1.31c1.56,0.07,4.85,0.21,7.18,2.58
	c3.08,3.14,3.41,9.09,0.4,12.35C1222.8-119.78,1219.12-119.85,1217.04-119.89z"/>
<path class="st6" d="M546.06-143.69c-2.46,0-4.93,0-7.39,0c0,1.02,0,2.05,0,3.07c-0.18-0.21-0.35-0.42-0.53-0.63
	c-0.09-0.07-0.19-0.15-0.28-0.22c-0.89-0.68-1.81-1.26-2.73-1.72c-2.96-1.48-5.7-1.66-7.25-1.74c-2.56-0.14-7.84-0.32-12.11,3.21
	c-5.01,4.14-5.18,10.56-5.24,12.85c-0.06,2.4-0.21,8.2,4,12.34c3.56,3.5,8.16,3.76,13.19,4.04c2.96,0.16,4.92-0.2,6.67-1.03
	c1.3-0.62,2.37-1.44,3.54-2.65c0.07-0.07,0.14-0.14,0.21-0.21c0,1.26,0,2.52,0,3.78c2.64,0,5.28,0,7.92,0
	C546.06-122.97,546.06-133.33,546.06-143.69z M538.14-153.12 M527.83-120.06c-1.81-0.03-4.35-0.08-6.55-1.95
	c-2.58-2.2-2.84-5.33-2.87-6.16c-0.13-2.98,1.28-6.11,3.93-7.83c2.25-1.45,4.57-1.35,6.07-1.29c1.56,0.07,4.85,0.21,7.18,2.55
	c3.08,3.1,3.41,8.99,0.4,12.21C533.59-119.95,529.91-120.02,527.83-120.06z"/>
<path class="st2" d="M677.95-112.37c-2.71,0-5.42,0-8.13,0c0-6.17,0-12.34,0-18.51c-0.15-0.3-2.54-5.05-7.85-5.64
	c-3.86-0.43-7.69,1.51-9.73,4.94c0,6.4,0,12.81,0,19.21h-8.13v-31.35h8.05v3.27c1.26-1.14,4.11-3.39,8.36-4.05
	c0.9-0.14,7.7-1.07,12.93,3.83c3.15,2.94,4.1,6.48,4.42,7.96C677.9-125.93,677.93-119.15,677.95-112.37z"/>
<path class="st6" d="M718.4-143.71c-2.46,0-4.93,0-7.39,0c0,1.03,0,2.06,0,3.09c-0.18-0.21-0.35-0.42-0.53-0.63
	c-0.09-0.08-0.19-0.15-0.28-0.22c-0.89-0.68-1.81-1.27-2.73-1.73c-2.96-1.5-5.7-1.67-7.25-1.75c-2.56-0.14-7.84-0.32-12.11,3.24
	c-5.01,4.17-5.18,10.64-5.24,12.96c-0.06,2.42-0.21,8.27,4,12.44c3.56,3.53,8.16,3.79,13.19,4.07c2.96,0.17,4.92-0.2,6.67-1.04
	c1.3-0.62,2.37-1.46,3.54-2.67c0.07-0.07,0.14-0.15,0.21-0.22c0,1.27,0,2.54,0,3.81c2.64,0,5.28,0,7.92,0
	C718.4-122.82,718.4-133.26,718.4-143.71z M710.48-153.21 M700.18-119.89c-1.81-0.03-4.35-0.08-6.55-1.96
	c-2.58-2.21-2.84-5.37-2.87-6.21c-0.13-3.01,1.28-6.16,3.93-7.89c2.25-1.46,4.57-1.37,6.07-1.3c1.56,0.07,4.85,0.21,7.18,2.57
	c3.08,3.12,3.41,9.06,0.4,12.3C705.93-119.78,702.25-119.85,700.18-119.89z"/>
<path class="st6" d="M1354.61-272.44v30.38c-2.46-1.98-5.04-3.66-7.63-4.97c-7.5-3.8-14.42-4.24-18.35-4.45
	c-6.49-0.35-19.84-0.81-30.66,8.23c-12.69,10.6-13.11,27.03-13.25,32.92c-0.16,6.16-0.53,21,10.12,31.59
	c9.02,8.96,20.64,9.63,33.39,10.34c7.49,0.42,12.45-0.5,16.88-2.64c3.28-1.58,6.01-3.7,8.97-6.79c0.17-0.18,0.35-0.37,0.53-0.55
	c0,3.23,0,6.45,0,9.68c6.68,0,13.36,0,20.04,0c0-34.58,0-69.16,0-103.74H1354.61z M1328.53-187.79c-4.59-0.09-11.01-0.21-16.57-4.99
	c-6.54-5.62-7.18-13.64-7.27-15.78c-0.32-7.64,3.24-15.66,9.94-20.04c5.69-3.72,11.57-3.47,15.37-3.3
	c3.95,0.17,12.28,0.53,18.16,6.53c7.78,7.94,8.63,23.02,1.02,31.25C1343.11-187.51,1333.78-187.69,1328.53-187.79z"/>
<rect x="1048.73" y="-249.17" class="st3" width="19.52" height="80.85"/>
<rect x="1048.73" y="-271.78" class="st0" width="19.52" height="12.4"/>
<g>
	<g>
		<path class="st5" d="M1034.26-225.62h-24.56v-4.45c0-3.79-0.24-6.19-0.72-7.2c-0.48-1.01-1.68-1.51-3.6-1.51
			c-1.56,0-2.72,0.46-3.5,1.39c-0.78,0.93-1.17,2.32-1.17,4.17c0,2.51,0.19,4.36,0.58,5.53c0.39,1.17,1.55,2.46,3.5,3.86
			c1.94,1.4,5.94,3.44,11.97,6.12c8.05,3.54,13.33,6.88,15.85,10.01c2.51,3.13,3.77,7.69,3.77,13.66c0,6.68-0.96,11.71-2.88,15.11
			s-5.14,6.02-9.64,7.85c-4.51,1.83-9.94,2.75-16.3,2.75c-7.04,0-13.07-0.99-18.08-2.97c-5.01-1.98-8.45-4.66-10.33-8.04
			c-1.88-3.38-2.81-8.49-2.81-15.33v-3.96h24.56v5.19c0,4.41,0.31,7.27,0.93,8.59c0.62,1.32,1.84,1.98,3.67,1.98
			c1.97,0,3.34-0.44,4.12-1.33c0.78-0.89,1.17-2.75,1.17-5.59c0-3.91-0.5-6.37-1.51-7.36c-1.05-0.99-6.43-3.91-16.12-8.78
			c-8.14-4.12-13.11-7.86-14.89-11.22c-1.78-3.36-2.68-7.35-2.68-11.96c0-6.55,0.96-11.38,2.88-14.5s5.18-5.51,9.78-7.2
			c4.6-1.69,9.94-2.53,16.02-2.53c6.04,0,11.17,0.69,15.4,2.07c4.23,1.38,7.48,3.2,9.74,5.47c2.26,2.27,3.64,4.37,4.12,6.3
			c0.48,1.94,0.72,4.97,0.72,9.09V-225.62z"/>
	</g>
</g>
<path class="st7" d="M2099.73,146.36"/>
<g>
	<defs>
		<circle id="SVGID_1_" cx="1544.59" cy="-165.32" r="136.69"/>
	</defs>
	<clipPath id="SVGID_00000018921272939264237480000014365385603470210185_">
		<use xlink:href="#SVGID_1_"  style="overflow:visible;"/>
	</clipPath>
	
		<circle style="clip-path:url(#SVGID_00000018921272939264237480000014365385603470210185_);fill:#3A99D1;" cx="1544.59" cy="-165.32" r="136.69"/>
	<g style="clip-path:url(#SVGID_00000018921272939264237480000014365385603470210185_);">
		<path class="st10" d="M1437.54-156.43c3.32-5.85,10.21-17.62,19.51-32.89c3.44-3.44,0-16.83,0-16.83
			c0.02-3.99,0.36-10.08,2.1-17.21c1.06-4.36,7.97-30.93,32.7-45.89c10.49-6.34,19.63-7.85,31.6-9.82
			c12.37-2.04,31.54-5.19,53.51,1.59c35.93,11.1,55.12,40.55,58.52,52.59c4.46,15.8,1.91,31.17,1.91,31.17
			c-0.48,2.88-2.76,15.49-8.42,25.44c-0.9,1.58-3.75,6.81-6.98,14.28c-0.59,1.37-1.19,2.92-1.82,4.85
			c-2.96,9.04-3.49,16.42-3.82,21.61c-0.61,9.28-1.05,21.12,3.06,33.09c7.17,20.9,21.53,21.46,21.71,32.45
			c0.29,18.08-38.26,34.21-66.46,38.88c-29.55,4.9-52-2.13-53.55-6.69c-1.19-3.5,1.98-4.6,2.49-12.62c0.17-2.66-0.14-4.72-0.36-6.01
			c-2.78-16.47-10.82-32.37-11.88-34.45c-0.35-0.7-1.04-2.02-2.49-2.95c-3.17-2.03-7.42-0.5-9.56,0.19
			c-11.49,3.69-23.72,2.76-30.41-0.38c-3.06-1.44-4.46-3.12-5.21-4.28c-1.48-2.3-1.65-4.63-1.82-7.24
			c-0.35-5.58,1.29-5.84,0.43-8.61c-1.29-4.14-5.16-4.18-5.88-8.46c-0.14-0.83,0.05-0.59-0.14-4.5c-0.09-1.9,0.11-2.48,0.43-3.11
			c0.61-1.17,1.47-1.42,1.43-2.12c-0.05-0.83-1.29-0.96-2.14-1.75c-2.15-1.99,0.05-6.38-0.54-13.93c-0.08-1-0.19-1.91-0.8-2.81
			c-1.32-1.94-3.78-2.08-6.38-2.58c-1.8-0.35-10.41-2.02-11.79-6.07C1435.85-153.38,1436.92-155.33,1437.54-156.43z"/>
	</g>
	<path style="clip-path:url(#SVGID_00000018921272939264237480000014365385603470210185_);fill:#3A99D1;" d="M1552.01-180.37v152.39
		h-4.89v-137.14c-7.55-7.61-15.1-15.23-22.65-22.84c-8.68,0-17.36,0-26.04,0c-0.82-0.58-1.65-1.16-2.47-1.75
		c-0.3,0.1-0.71,0.2-1.2,0.2c-2.3,0.01-5.51-2.11-5.51-5.48c0-3.02,2.47-5.48,5.51-5.48c3.03,0,5.5,2.46,5.5,5.48
		c0,0.64-0.12,1.24-0.32,1.81c-0.09,0.29-0.22,0.58-0.36,0.84h26.31c7.08,7.27,14.15,14.53,21.23,21.8v-9.29
		c-7.2-7.47-14.41-14.95-21.61-22.42c-15.78-0.02-31.56-0.03-47.33-0.05c-1.89-1.91-3.78-3.82-5.67-5.73
		c-0.19,0.12-0.48,0.27-0.86,0.39c0,0-0.59,0.15-1.26,0.15c-3.05,0-5.51-2.46-5.51-5.48c0-3.04,2.47-5.48,5.51-5.48
		c3.03,0,5.5,2.44,5.5,5.48c0,0.88-0.22,1.73-0.61,2.47c1.3,1.22,2.6,2.44,3.9,3.66c15.96,0.07,31.93,0.14,47.89,0.22
		C1535.38-197.88,1543.7-189.12,1552.01-180.37z"/>
	<path style="clip-path:url(#SVGID_00000018921272939264237480000014365385603470210185_);fill:#3A99D1;" d="M1525.81-227.25
		c-11.25-0.01-22.51-0.02-33.76-0.02c-2.9-3.17-5.81-6.34-8.71-9.52c-0.46,0.19-1.14,0.39-1.95,0.36c-2.36-0.08-5.5-2.11-5.5-5.5
		c0-3.05,2.45-5.5,5.5-5.5c3.03,0,5.5,2.45,5.5,5.5c0,0.81-0.17,1.6-0.51,2.28l7.99,7.98h21.38l-11.41-11.43
		c-0.38,0.12-0.78,0.16-1.19,0.16c-2.76,0-4.99-2.23-4.99-4.99c0-2.76,2.23-4.99,4.99-4.99c2.76,0,4.99,2.23,4.99,4.99
		c0,0.91-0.25,1.77-0.7,2.51C1513.56-239.36,1519.68-233.3,1525.81-227.25z"/>
	<path style="clip-path:url(#SVGID_00000018921272939264237480000014365385603470210185_);fill:#3A99D1;" d="M1558.05-215.13
		l-3.79,3.79c-16.43-16.8-32.86-33.6-49.29-50.4c-2.3,0-4.61,0-6.91,0c-2.68,2.51-5.36,5.02-8.04,7.53
		c0.18,2.82-2.03,5.22-4.76,5.29c-2.75,0.07-4.99-2.28-4.99-4.99c0-2.76,2.23-4.99,4.99-4.99c0.71,0,1.38,0.15,1.99,0.41l7.53-7.53
		c4.48,0,8.95,0,13.43,0C1524.82-249.06,1541.43-232.1,1558.05-215.13z"/>
	<g style="clip-path:url(#SVGID_00000018921272939264237480000014365385603470210185_);">
		<polygon points="1576.34,-146.16 1576,-146.16 1576,-145.82 1576.34,-146.16 		"/>
	</g>
	<path style="clip-path:url(#SVGID_00000018921272939264237480000014365385603470210185_);fill:#3A99D1;" d="M1612.94-148.23
		c0,2.28-2.01,3.97-4.03,4.15c-1.61,0.14-3.22-0.67-4.19-2.11h-4.1l-4.87,3.69v114.53h-4.87c-0.22-38.46-0.44-76.92-0.67-115.38
		c2.69-2.3,5.39-4.6,8.08-6.91h6.44c0.98-1.45,2.6-2.27,4.23-2.11C1610.97-152.18,1612.94-150.49,1612.94-148.23z"/>
	<polygon style="clip-path:url(#SVGID_00000018921272939264237480000014365385603470210185_);fill:#3A99D1;" points="
		1552.01,-180.34 1552.01,-180.24 1551.91,-180.34 	"/>
	<path style="clip-path:url(#SVGID_00000018921272939264237480000014365385603470210185_);fill:#3A99D1;" d="M1588.74-254.68
		c0,1.73-0.87,3.23-2.2,4.13v30.57c-0.15,0.11-0.29,0.21-0.44,0.32l-6.09,6.09c0.03,0.2,0.04,0.41,0.04,0.61
		c0,2.76-2.23,4.99-4.99,4.99c-2.76,0-4.99-2.23-4.99-4.99c0-2.76,2.23-4.99,4.99-4.99c0.75,0,1.46,0.16,2.1,0.46l4-4v-28.93
		c-1.45-0.87-2.41-2.45-2.41-4.26c0-2.76,2.23-4.99,4.99-4.99C1586.5-259.67,1588.74-257.44,1588.74-254.68z"/>
	<path style="clip-path:url(#SVGID_00000018921272939264237480000014365385603470210185_);fill:#3A99D1;" d="M1625.65-218.98
		c0,1.77-0.91,3.32-2.31,4.19v9.62l-0.29,0.29l-56.6,56.6v120.3h-4.87V-177.9c0.08-0.41,0.16-0.82,0.25-1.23l36.08-36.1v-19.68
		c-1.26-0.9-2.07-2.36-2.07-4.03c0-2.76,2.23-4.99,4.99-4.99s4.99,2.23,4.99,4.99c0,1.87-1.02,3.5-2.54,4.35c0,6.8,0,13.6-0.01,20.4
		c-12.27,12.67-24.54,25.34-36.82,38v7.28l19.83-19.83c-0.32-0.64-0.48-1.36-0.48-2.12c0-2.76,2.23-4.99,4.99-4.99
		s4.99,2.23,4.99,4.99c0,2.68-2.12,4.87-4.79,4.97l-24.54,24.54v5.5l51.54-51.54v-7.38c-1.39-0.88-2.32-2.44-2.32-4.21
		c0-2.76,2.23-4.99,4.99-4.99C1623.41-223.97,1625.65-221.73,1625.65-218.98z"/>
	<path style="clip-path:url(#SVGID_00000018921272939264237480000014365385603470210185_);fill:#3A99D1;" d="M1630.63-179.29
		c0,2.67-2.23,4.83-4.99,4.83c-0.77,0-1.49-0.17-2.13-0.46l-5.37,5.21v0.44h-11.59l-25.67,24.86v116.44H1576v-119.04l28.44-27.56
		v-0.56h13.14l3.21-3.11c-0.09-0.34-0.13-0.69-0.13-1.05c0-2.67,2.23-4.83,4.99-4.83C1628.4-184.13,1630.63-181.96,1630.63-179.29z"
		/>
	<path style="clip-path:url(#SVGID_00000018921272939264237480000014365385603470210185_);fill:#3A99D1;" d="M1570.07-199.89
		c0,2.76-2.23,4.99-4.99,4.99c-0.7,0-1.35-0.14-1.94-0.39h-0.01l-4.34,4.34c-0.83,0.92-1.66,1.84-2.49,2.76
		c-8.33-8.62-16.67-17.24-25-25.86c-16.64,0-33.27,0-49.91,0c-2.88-3.04-5.76-6.08-8.64-9.12c-0.71,0.35-1.51,0.54-2.35,0.54
		c-3.05,0-5.51-2.47-5.51-5.51c0-3.03,2.47-5.5,5.51-5.5c3.03,0,5.5,2.47,5.5,5.5c0,0.78-0.16,1.54-0.48,2.22l7.48,7.48h50.12
		c7.76,8.33,15.52,16.67,23.28,25l4.29-4.28c-0.32-0.65-0.49-1.39-0.49-2.16c0-2.76,2.23-4.99,4.99-4.99
		S1570.07-202.65,1570.07-199.89z"/>
	<path style="clip-path:url(#SVGID_00000018921272939264237480000014365385603470210185_);fill:#3A99D1;" d="M1559.56-242.94
		c0,2.76-2.23,4.99-4.99,4.99c-2.76,0-4.99-2.23-4.99-4.99c0-0.2,0.01-0.41,0.04-0.59c-7.2-7.62-14.39-15.25-21.59-22.87
		c-2.77,0-5.54,0-8.31,0c-0.91,0.94-2.19,1.54-3.6,1.54c-2.76,0-4.99-2.23-4.99-4.99c0-2.76,2.23-4.99,4.99-4.99
		c2.07,0,3.86,1.28,4.61,3.07h9.17c7.72,8.03,15.43,16.06,23.15,24.09c0.48-0.16,0.99-0.25,1.52-0.25
		C1557.32-247.92,1559.56-245.69,1559.56-242.94z"/>
	<path style="clip-path:url(#SVGID_00000018921272939264237480000014365385603470210185_);fill:#3A99D1;" d="M1571.85-263.3v35.01
		h-4.93v-32.69c-1.99-2.31-3.98-4.61-5.98-6.92c-2.38,0-4.77,0-7.15,0c-0.87,1.41-2.44,2.35-4.22,2.35c-2.76,0-4.99-2.23-4.99-4.99
		c0-2.76,2.23-4.99,4.99-4.99c2.2,0,4.08,1.44,4.73,3.42h9.53C1566.51-269.17,1569.18-266.23,1571.85-263.3z"/>
	<polyline style="clip-path:url(#SVGID_00000018921272939264237480000014365385603470210185_);fill:#3A99D1;" points="
		1551.8,-215.99 1568.44,-231.86 1571.85,-228.29 1556.3,-213.47 	"/>
</g>
<g>
	<defs>
		<circle id="SVGID_00000073695306550467175840000003996874630293697471_" cx="1944.41" cy="-227.21" r="136.69"/>
	</defs>
	<clipPath id="SVGID_00000116924914821665247060000001652217264347124128_">
		<use xlink:href="#SVGID_00000073695306550467175840000003996874630293697471_"  style="overflow:visible;"/>
	</clipPath>
	
		<circle style="clip-path:url(#SVGID_00000116924914821665247060000001652217264347124128_);fill:#3A99D1;" cx="1944.41" cy="-227.21" r="136.69"/>
	<g style="clip-path:url(#SVGID_00000116924914821665247060000001652217264347124128_);">
		<path class="st10" d="M1837.36-218.33c3.32-5.85,10.21-17.62,19.51-32.89c3.44-3.44,0-16.83,0-16.83
			c0.02-3.99,0.36-10.08,2.1-17.21c1.06-4.36,7.97-30.93,32.7-45.89c10.49-6.34,19.63-7.85,31.6-9.82
			c12.37-2.04,31.54-5.19,53.51,1.59c35.93,11.1,55.12,40.55,58.52,52.59c4.46,15.8,1.91,31.17,1.91,31.17
			c-0.48,2.88-2.76,15.49-8.42,25.44c-0.9,1.58-3.75,6.81-6.98,14.28c-0.59,1.37-1.19,2.92-1.82,4.85
			c-2.96,9.04-3.49,16.42-3.82,21.61c-0.61,9.28-1.05,21.12,3.06,33.09c7.17,20.9,21.53,21.46,21.71,32.45
			c0.29,18.08-38.26,34.21-66.46,38.88c-29.55,4.9-52-2.13-53.55-6.69c-1.19-3.5,1.98-4.6,2.49-12.62c0.17-2.66-0.14-4.72-0.36-6.01
			c-2.78-16.47-10.82-32.37-11.88-34.45c-0.35-0.7-1.04-2.02-2.49-2.95c-3.17-2.03-7.42-0.5-9.56,0.19
			c-11.49,3.69-23.72,2.76-30.41-0.38c-3.06-1.44-4.46-3.12-5.21-4.28c-1.48-2.3-1.65-4.63-1.82-7.24
			c-0.35-5.58,1.29-5.84,0.43-8.61c-1.29-4.14-5.16-4.18-5.88-8.46c-0.14-0.83,0.05-0.59-0.14-4.5c-0.09-1.9,0.11-2.48,0.43-3.11
			c0.61-1.17,1.47-1.42,1.43-2.12c-0.05-0.83-1.29-0.96-2.14-1.75c-2.15-1.99,0.05-6.38-0.54-13.93c-0.08-1-0.19-1.91-0.8-2.81
			c-1.32-1.94-3.78-2.08-6.38-2.58c-1.8-0.35-10.41-2.02-11.79-6.07C1835.67-215.28,1836.74-217.23,1837.36-218.33z"/>
	</g>
	<path style="clip-path:url(#SVGID_00000116924914821665247060000001652217264347124128_);fill:#3A99D1;" d="M1951.84-242.27v152.39
		h-4.89v-137.14c-7.55-7.61-15.1-15.23-22.65-22.84c-8.68,0-17.36,0-26.04,0c-0.82-0.58-1.65-1.16-2.47-1.75
		c-0.3,0.1-0.71,0.2-1.2,0.2c-2.3,0.01-5.51-2.11-5.51-5.48c0-3.02,2.47-5.48,5.51-5.48c3.03,0,5.5,2.46,5.5,5.48
		c0,0.64-0.12,1.24-0.32,1.81c-0.09,0.29-0.22,0.58-0.36,0.84h26.31c7.08,7.27,14.15,14.53,21.23,21.8v-9.29
		c-7.2-7.47-14.41-14.95-21.61-22.42c-15.78-0.02-31.56-0.03-47.33-0.05c-1.89-1.91-3.78-3.82-5.67-5.73
		c-0.19,0.12-0.48,0.27-0.86,0.39c0,0-0.59,0.15-1.26,0.15c-3.05,0-5.51-2.46-5.51-5.48c0-3.04,2.47-5.48,5.51-5.48
		c3.03,0,5.5,2.44,5.5,5.48c0,0.88-0.22,1.73-0.61,2.47c1.3,1.22,2.6,2.44,3.9,3.66c15.96,0.07,31.93,0.14,47.89,0.22
		C1935.21-259.78,1943.52-251.02,1951.84-242.27z"/>
	<path style="clip-path:url(#SVGID_00000116924914821665247060000001652217264347124128_);fill:#3A99D1;" d="M1925.63-289.15
		c-11.25-0.01-22.51-0.02-33.76-0.02c-2.9-3.17-5.81-6.34-8.71-9.52c-0.46,0.19-1.14,0.39-1.95,0.36c-2.36-0.08-5.5-2.11-5.5-5.5
		c0-3.05,2.45-5.5,5.5-5.5c3.03,0,5.5,2.45,5.5,5.5c0,0.81-0.17,1.6-0.51,2.28l7.99,7.98h21.38l-11.41-11.43
		c-0.38,0.12-0.78,0.16-1.19,0.16c-2.76,0-4.99-2.23-4.99-4.99c0-2.76,2.23-4.99,4.99-4.99c2.76,0,4.99,2.23,4.99,4.99
		c0,0.91-0.25,1.77-0.7,2.51C1913.38-301.26,1919.5-295.2,1925.63-289.15z"/>
	<path style="clip-path:url(#SVGID_00000116924914821665247060000001652217264347124128_);fill:#3A99D1;" d="M1957.87-277.03
		l-3.79,3.79c-16.43-16.8-32.86-33.6-49.29-50.4c-2.3,0-4.61,0-6.91,0c-2.68,2.51-5.36,5.02-8.04,7.53
		c0.18,2.82-2.03,5.22-4.76,5.29c-2.75,0.07-4.99-2.28-4.99-4.99c0-2.76,2.23-4.99,4.99-4.99c0.71,0,1.38,0.15,1.99,0.41l7.53-7.53
		c4.48,0,8.95,0,13.43,0C1924.64-310.96,1941.25-294,1957.87-277.03z"/>
	<g style="clip-path:url(#SVGID_00000116924914821665247060000001652217264347124128_);">
		<polygon points="1976.16,-208.06 1975.82,-208.06 1975.82,-207.72 1976.16,-208.06 		"/>
	</g>
	<path style="clip-path:url(#SVGID_00000116924914821665247060000001652217264347124128_);fill:#3A99D1;" d="M2012.76-210.13
		c0,2.28-2.01,3.97-4.03,4.15c-1.61,0.14-3.22-0.67-4.19-2.11h-4.1l-4.87,3.69v114.53h-4.87c-0.22-38.46-0.44-76.92-0.67-115.38
		c2.69-2.3,5.39-4.6,8.08-6.91h6.44c0.98-1.45,2.6-2.27,4.23-2.11C2010.79-214.08,2012.77-212.39,2012.76-210.13z"/>
	<polygon style="clip-path:url(#SVGID_00000116924914821665247060000001652217264347124128_);fill:#3A99D1;" points="
		1951.84,-242.24 1951.84,-242.14 1951.73,-242.24 	"/>
	<path style="clip-path:url(#SVGID_00000116924914821665247060000001652217264347124128_);fill:#3A99D1;" d="M1988.56-316.58
		c0,1.73-0.87,3.23-2.2,4.13v30.57c-0.15,0.11-0.29,0.21-0.43,0.32l-6.09,6.09c0.03,0.2,0.04,0.41,0.04,0.61
		c0,2.76-2.23,4.99-4.99,4.99c-2.76,0-4.99-2.23-4.99-4.99c0-2.76,2.23-4.99,4.99-4.99c0.75,0,1.46,0.16,2.1,0.46l4-4v-28.93
		c-1.45-0.87-2.41-2.45-2.41-4.26c0-2.76,2.23-4.99,4.99-4.99C1986.32-321.57,1988.56-319.34,1988.56-316.58z"/>
	<path style="clip-path:url(#SVGID_00000116924914821665247060000001652217264347124128_);fill:#3A99D1;" d="M2025.47-280.88
		c0,1.77-0.91,3.32-2.31,4.19v9.62l-0.29,0.29l-56.6,56.6v120.3h-4.87V-239.8c0.08-0.41,0.16-0.82,0.25-1.23l36.08-36.1v-19.68
		c-1.26-0.9-2.07-2.36-2.07-4.03c0-2.76,2.23-4.99,4.99-4.99c2.76,0,4.99,2.23,4.99,4.99c0,1.87-1.02,3.5-2.54,4.35
		c0,6.8,0,13.6-0.01,20.4c-12.27,12.67-24.54,25.34-36.82,38v7.28l19.83-19.83c-0.32-0.64-0.48-1.36-0.48-2.12
		c0-2.76,2.23-4.99,4.99-4.99c2.76,0,4.99,2.23,4.99,4.99c0,2.68-2.12,4.87-4.79,4.97l-24.54,24.54v5.5l51.54-51.54v-7.38
		c-1.39-0.88-2.32-2.44-2.32-4.21c0-2.76,2.23-4.99,4.99-4.99S2025.47-283.63,2025.47-280.88z"/>
	<path style="clip-path:url(#SVGID_00000116924914821665247060000001652217264347124128_);fill:#3A99D1;" d="M2030.46-241.19
		c0,2.67-2.23,4.83-4.99,4.83c-0.77,0-1.49-0.17-2.13-0.46l-5.37,5.21v0.44h-11.59l-25.67,24.86v116.44h-4.89v-119.04l28.44-27.56
		v-0.56h13.14l3.21-3.11c-0.09-0.34-0.13-0.69-0.13-1.05c0-2.67,2.23-4.83,4.99-4.83C2028.22-246.03,2030.46-243.86,2030.46-241.19z
		"/>
	<path style="clip-path:url(#SVGID_00000116924914821665247060000001652217264347124128_);fill:#3A99D1;" d="M1969.89-261.79
		c0,2.76-2.23,4.99-4.99,4.99c-0.7,0-1.35-0.14-1.94-0.39h-0.01l-4.34,4.34c-0.83,0.92-1.66,1.84-2.49,2.76
		c-8.33-8.62-16.67-17.24-25-25.86c-16.64,0-33.27,0-49.91,0c-2.88-3.04-5.76-6.08-8.64-9.12c-0.71,0.35-1.51,0.54-2.35,0.54
		c-3.05,0-5.51-2.47-5.51-5.51c0-3.03,2.47-5.5,5.51-5.5c3.03,0,5.5,2.47,5.5,5.5c0,0.78-0.16,1.54-0.48,2.22l7.48,7.48h50.12
		c7.76,8.33,15.52,16.67,23.28,25l4.29-4.28c-0.32-0.65-0.49-1.39-0.49-2.16c0-2.76,2.23-4.99,4.99-4.99
		C1967.66-266.78,1969.89-264.55,1969.89-261.79z"/>
	<path style="clip-path:url(#SVGID_00000116924914821665247060000001652217264347124128_);fill:#3A99D1;" d="M1959.38-304.83
		c0,2.76-2.23,4.99-4.99,4.99s-4.99-2.23-4.99-4.99c0-0.2,0.01-0.41,0.04-0.59c-7.2-7.62-14.39-15.25-21.59-22.87
		c-2.77,0-5.54,0-8.31,0c-0.91,0.94-2.19,1.54-3.6,1.54c-2.76,0-4.99-2.23-4.99-4.99c0-2.76,2.23-4.99,4.99-4.99
		c2.07,0,3.86,1.28,4.61,3.07h9.17c7.72,8.03,15.43,16.06,23.15,24.09c0.48-0.16,0.99-0.25,1.52-0.25
		C1957.14-309.82,1959.38-307.59,1959.38-304.83z"/>
	<path style="clip-path:url(#SVGID_00000116924914821665247060000001652217264347124128_);fill:#3A99D1;" d="M1971.68-325.2v35.01
		h-4.93v-32.69c-1.99-2.31-3.98-4.61-5.98-6.92c-2.38,0-4.77,0-7.15,0c-0.87,1.41-2.44,2.35-4.22,2.35c-2.76,0-4.99-2.23-4.99-4.99
		c0-2.76,2.23-4.99,4.99-4.99c2.2,0,4.08,1.44,4.73,3.42h9.53C1966.33-331.07,1969-328.13,1971.68-325.2z"/>
	<polyline style="clip-path:url(#SVGID_00000116924914821665247060000001652217264347124128_);fill:#3A99D1;" points="
		1951.62,-277.89 1968.27,-293.76 1971.67,-290.19 1956.12,-275.37 	"/>
</g>
<path class="st6" d="M577.55-123.88h8.96c-2.32,6.82-10.05,11.67-17.43,11.67c-8.93,0-18.37-7.08-18.13-16.23
	c0.24-9.15,10.05-15.58,18.79-15.28c7.3,0.24,15.21,5.21,17.06,12.43h-9.2c-1.56-2.8-4.89-4.74-8.71-4.74
	c-5.35,0-9.68,3.76-9.68,8.4c0,4.64,4.34,8.4,9.68,8.4C572.68-119.24,575.97-121.13,577.55-123.88z"/>
<path class="st6" d="M1185.56-124.04h8.96c-2.32,6.82-10.05,11.67-17.43,11.67c-8.93,0-18.37-7.08-18.13-16.23
	c0.24-9.15,10.05-15.58,18.79-15.28c7.3,0.24,15.21,5.21,17.06,12.43h-9.2c-1.56-2.8-4.89-4.74-8.71-4.74
	c-5.35,0-9.68,3.76-9.68,8.4c0,4.64,4.34,8.4,9.68,8.4C1180.69-119.4,1183.98-121.29,1185.56-124.04z"/>
<path class="st6" d="M901.35-128.08h12.07c-3.13,9.19-13.53,15.71-23.46,15.71c-12.01,0-24.73-9.53-24.4-21.85
	c0.32-12.31,13.53-20.97,25.3-20.57c9.83,0.32,20.48,7.02,22.97,16.73h-12.39c-2.11-3.77-6.58-6.38-11.73-6.38
	c-7.2,0-13.04,5.06-13.04,11.3c0,6.24,5.84,11.3,13.04,11.3C894.8-121.83,899.22-124.37,901.35-128.08z"/>
<path class="st3" d="M621.64-144.82c-9.7,0-17.56,7.26-17.56,16.22c0,8.96,7.87,16.23,17.56,16.23c9.69,0,17.56-7.27,17.56-16.23
	C639.2-137.56,631.33-144.82,621.64-144.82z M621.22-120.04c-5.13,0-9.29-3.85-9.29-8.6s4.16-8.6,9.29-8.6s9.29,3.85,9.29,8.6
	S626.35-120.04,621.22-120.04z"/>
<rect x="723.29" y="-154.64" class="st6" width="7.71" height="42.27"/>
<path class="st6" d="M972.28-136.96v13.7c0.01,0.49,0.11,1.9,1.26,3.24c1.42,1.64,3.4,1.96,3.86,2.02h8.51v5.62c-4.5,0-9,0-13.5,0
	c-0.46-0.05-1.1-0.17-1.82-0.44c-1.26-0.47-2.01-1.13-3.02-2.04c-1.15-1.04-1.88-1.69-2.32-2.78c-0.39-0.97-0.35-1.8-0.34-2.13
	c0.07-2.11,0.04-8.4,0-17.2c-1.89,0-3.78,0-5.67,0v-6.73h5.67v-8.17h7.36v8.17h14.42v6.73H972.28z"/>
<path class="st13" d="M960.53,1477.57"/>
<path class="st6" d="M1085.27-132.36c0,6.66,0,13.33,0,19.99c-2.15,0-4.31,0-6.46,0c0-6.39,0-12.78,0-19.18
	c-0.08-0.35-0.22-0.86-0.49-1.42c-1.4-2.85-4.87-4.12-7.61-4.15c-0.97-0.01-2.71,0.12-4.56,1.15c-2.01,1.12-3.09,2.7-3.52,3.44
	c0.02,6.72,0.04,13.44,0.06,20.16h-7.49c0-6.72,0-13.44,0-20.16c-0.47-0.66-3.27-4.45-7.55-4.59c-0.32-0.01-1.54-0.03-3.05,0.48
	c-2.96,1-4.58,3.23-5.15,4.11c0,6.72,0,13.44,0,20.16h-7.49v-31.3h7.49v3.24c0.22-0.17,0.54-0.42,0.94-0.69
	c3.71-2.48,7.52-2.55,8.19-2.55c3.28-0.02,5.78,1.09,7.04,1.76c0.01,0,0.01,0,0.01,0.01c0.98,0.57,2.01,1.34,3,2.27
	c0.43,0.41,0.85,0.83,1.22,1.25c0.33-0.35,0.67-0.7,1.04-1.04c2.06-1.92,4.25-3.18,5.85-3.49c1.12-0.37,2.91-0.83,5.13-0.77
	c1.31,0.04,5.74,0.23,9.44,3.73c0.93,0.88,3.04,2.87,3.73,6.07C1085.2-133.25,1085.25-132.73,1085.27-132.36z"/>
<g>
	<path d="M1044.78,1463.3c-0.04,0.05-0.07,0.11-0.1,0.16c0.03-0.02,0.07-0.05,0.1-0.07V1463.3L1044.78,1463.3z"/>
</g>
<g>
	<path d="M1068.91,1462.88c-0.02,0.01-0.04,0.03-0.06,0.04c0,0.08,0,0.16-0.01,0.24c0.02-0.04,0.04-0.07,0.07-0.1V1462.88
		L1068.91,1462.88z"/>
</g>
<path class="st14" d="M1085.89,1463.92c-0.07-0.14-0.15-0.27-0.23-0.4"/>
</svg>